<?xml version="1.0" encoding="utf-8"?>
<!-- Generator: Adobe Illustrator 27.5.0, SVG Export Plug-In . SVG Version: 6.00 Build 0)  -->
<svg version="1.1" xmlns="http://www.w3.org/2000/svg" xmlns:xlink="http://www.w3.org/1999/xlink" x="0px" y="0px"
	 viewBox="0 0 3710 3710" style="enable-background:new 0 0 3710 3710;" xml:space="preserve">
<g id="Background">
	<g>
		<g>
			<rect style="fill:#FFFFFF;" width="3710" height="3710"/>
		</g>
	</g>
</g>
<g id="Illustration">
	<g>
		<path style="fill:#F4F7FA;" d="M1080.534,524.044c-95.983,139.917,16.559,366.755-125.862,471.984
			c-138.637,102.433-308.947-65.468-439.603,22.705c-193.821,130.8-158.426,729.315,124.951,1101.185
			c85.221,111.834,156.428,155.347,187.966,281.826c67.72,271.583-170.282,433.136-124.99,567.457
			c101.98,302.44,1670.353,556.223,2299.655-352.709c293.909-424.509,337.885-1037.503,75.286-1503.075
			C2603.423,272.134,1295.902,210.096,1080.534,524.044z"/>
		<g>
			<g>
				<g>
					<linearGradient id="SVGID_1_" gradientUnits="userSpaceOnUse" x1="1049.6871" y1="1261.411" x2="1820.5555" y2="2703.5137">
						<stop  offset="0" style="stop-color:#FF9085"/>
						<stop  offset="1" style="stop-color:#FB6FBB"/>
					</linearGradient>
					<path style="fill:url(#SVGID_1_);" d="M2055.208,515.895L650.721,468.358c-32.11-1.087-58.194,23.791-58.194,55.57v2551.281
						c0,31.779,26.083,56.056,58.194,54.23l1404.486-79.865c29.049-1.652,52.552-27.42,52.552-57.561V572.247
						C2107.76,542.106,2084.256,516.878,2055.208,515.895z"/>
					<g style="opacity:0.3;">
						<path style="fill:#D8DEE8;" d="M1478.946,2399.822c-23.886-291.718,155.312-412.127,86.977-676.427
							c-84.468-326.697-409.341-340.699-519.979-661.066c-42.391-122.748-59.139-308.318,62.209-578.489l-457.431-15.482
							c-32.11-1.087-58.194,23.791-58.194,55.57v2551.281c0,31.779,26.083,56.056,58.194,54.23l1252.327-71.212
							C1584.428,2811.521,1493.627,2579.126,1478.946,2399.822z"/>
					</g>
					
						<linearGradient id="SVGID_00000039855890326027082970000016755619236002119071_" gradientUnits="userSpaceOnUse" x1="2044.9524" y1="625.2938" x2="1008.2793" y2="2321.6655">
						<stop  offset="0" style="stop-color:#FFFFFF"/>
						<stop  offset="0.9964" style="stop-color:#EBEFF2"/>
					</linearGradient>
					<path style="opacity:0.3;fill:url(#SVGID_00000039855890326027082970000016755619236002119071_);" d="M2055.208,548.109
						L650.721,502.192c-13.162-0.431-23.879,9.811-23.879,22.83v2548.303c0,13.019,10.717,23.013,23.879,22.28l1404.486-78.245
						c11.923-0.664,21.614-11.273,21.614-23.649V571.26C2076.821,558.884,2067.13,548.499,2055.208,548.109z"/>
				</g>
				<g>
					
						<linearGradient id="SVGID_00000081621136001733727810000017858387213789088685_" gradientUnits="userSpaceOnUse" x1="901.2895" y1="2528.9719" x2="1824.2068" y2="2528.9719">
						<stop  offset="0" style="stop-color:#FFFFFF"/>
						<stop  offset="0.9964" style="stop-color:#EBEFF2"/>
					</linearGradient>
					<path style="opacity:0.6;fill:url(#SVGID_00000081621136001733727810000017858387213789088685_);" d="M1789.951,2477.267
						l-852.214,30.707c-20.118,0.725-36.448,17.607-36.448,37.707l0,0c0,20.099,16.33,35.765,36.448,34.99l852.214-32.84
						c18.929-0.729,34.255-17.098,34.255-36.559l0,0C1824.207,2491.809,1808.88,2476.585,1789.951,2477.267z"/>
					
						<linearGradient id="SVGID_00000093173641053367058750000015243200673132243088_" gradientUnits="userSpaceOnUse" x1="901.2895" y1="2656.564" x2="1824.2068" y2="2656.564">
						<stop  offset="0" style="stop-color:#FFFFFF"/>
						<stop  offset="0.9964" style="stop-color:#EBEFF2"/>
					</linearGradient>
					<path style="opacity:0.6;fill:url(#SVGID_00000093173641053367058750000015243200673132243088_);" d="M1789.951,2602.959
						l-852.214,34.506c-20.118,0.815-36.448,17.77-36.448,37.87l0,0c0,20.1,16.33,35.692,36.448,34.827l852.214-36.639
						c18.929-0.814,34.255-17.25,34.255-36.712l0,0C1824.207,2617.349,1808.88,2602.193,1789.951,2602.959z"/>
					
						<linearGradient id="SVGID_00000031887667262510603420000007654178070319598763_" gradientUnits="userSpaceOnUse" x1="901.2895" y1="2784.1563" x2="1824.2068" y2="2784.1563">
						<stop  offset="0" style="stop-color:#FFFFFF"/>
						<stop  offset="0.9964" style="stop-color:#EBEFF2"/>
					</linearGradient>
					<path style="opacity:0.6;fill:url(#SVGID_00000031887667262510603420000007654178070319598763_);" d="M1789.951,2728.652
						l-852.214,38.305c-20.118,0.904-36.448,17.932-36.448,38.032l0,0c0,20.099,16.33,35.619,36.448,34.665l852.214-40.438
						c18.929-0.898,34.255-17.403,34.255-36.865l0,0C1824.207,2742.888,1808.88,2727.801,1789.951,2728.652z"/>
				</g>
				<g>
					
						<linearGradient id="SVGID_00000118372183034106794520000003143044370252277695_" gradientUnits="userSpaceOnUse" x1="901.2895" y1="661.796" x2="1365.5269" y2="661.796">
						<stop  offset="0" style="stop-color:#FFFFFF"/>
						<stop  offset="0.9964" style="stop-color:#EBEFF2"/>
					</linearGradient>
					<path style="opacity:0.6;fill:url(#SVGID_00000118372183034106794520000003143044370252277695_);" d="M1348.026,650.131
						l-428.685-12.142c-9.966-0.282-18.051,7.554-18.051,17.502l0,0c0,9.948,8.085,18.232,18.051,18.502l428.685,11.611
						c9.668,0.262,17.501-7.462,17.501-17.251l0,0C1365.527,658.563,1357.694,650.405,1348.026,650.131z"/>
					
						<linearGradient id="SVGID_00000072239985243774299160000002809104069278452363_" gradientUnits="userSpaceOnUse" x1="901.2895" y1="725.4554" x2="1365.5269" y2="725.4554">
						<stop  offset="0" style="stop-color:#FFFFFF"/>
						<stop  offset="0.9964" style="stop-color:#EBEFF2"/>
					</linearGradient>
					<path style="opacity:0.6;fill:url(#SVGID_00000072239985243774299160000002809104069278452363_);" d="M1348.026,713.317
						l-428.685-11.196c-9.966-0.26-18.051,7.593-18.051,17.542l0,0c0,9.948,8.085,18.214,18.051,18.462l428.685,10.665
						c9.668,0.24,17.501-7.501,17.501-17.29l0,0C1365.527,721.71,1357.694,713.57,1348.026,713.317z"/>
					
						<linearGradient id="SVGID_00000139259712126008320430000008416527745617769390_" gradientUnits="userSpaceOnUse" x1="901.2895" y1="789.1147" x2="1365.5269" y2="789.1147">
						<stop  offset="0" style="stop-color:#FFFFFF"/>
						<stop  offset="0.9964" style="stop-color:#EBEFF2"/>
					</linearGradient>
					<path style="opacity:0.6;fill:url(#SVGID_00000139259712126008320430000008416527745617769390_);" d="M1348.026,776.504
						l-428.685-10.25c-9.966-0.238-18.051,7.633-18.051,17.582l0,0c0,9.948,8.085,18.196,18.051,18.422l428.685,9.719
						c9.668,0.219,17.501-7.539,17.501-17.329l0,0C1365.527,784.858,1357.694,776.735,1348.026,776.504z"/>
				</g>
			</g>
			<path style="opacity:0.35;fill:#FFFFFF;" d="M1482.177,2399.716c-23.881-291.685,155.277-412.08,86.957-676.35
				c-84.449-326.66-409.248-340.66-519.861-660.99c-40.633-117.67-57.702-293.094,47.945-545.586l-443.076-14.486
				c-13.16-0.43-23.874,9.81-23.874,22.828v2548.005c0,13.017,10.714,23.011,23.874,22.278l1214.009-67.634
				C1580.276,2792.265,1496.248,2571.577,1482.177,2399.716z"/>
		</g>
		<g>
			
				<linearGradient id="SVGID_00000090980086164531788750000008358550010162477982_" gradientUnits="userSpaceOnUse" x1="1821.6141" y1="452.5709" x2="3641.012" y2="1389.4495">
				<stop  offset="0" style="stop-color:#444B8C"/>
				<stop  offset="0.9964" style="stop-color:#3E4177"/>
			</linearGradient>
			<path style="fill:url(#SVGID_00000090980086164531788750000008358550010162477982_);" d="M2888.297,1079.079
				c29.5,14.978,66.563,1.225,82.78-30.717c16.218-31.943,5.45-69.98-24.05-84.957c-1.528-0.776-3.088-1.429-4.652-2.052
				c5.48-17.675,9.613-35.488,12.385-53.308c1.69-0.005,3.387-0.033,5.112-0.187c33.656-3,60.368-33.927,59.665-69.08
				c-0.705-35.152-28.561-61.218-62.218-58.217c-1.759,0.158-3.487,0.435-5.206,0.74c-3.515-17.42-8.333-34.438-14.41-50.907
				c1.548-0.906,3.089-1.842,4.594-2.896c28.794-20.173,38.001-59.991,20.562-88.933c-17.439-28.943-54.92-36.05-83.714-15.878
				c-1.476,1.034-2.863,2.151-4.235,3.284c-11.374-12.573-23.847-24.224-37.343-34.858c0.949-1.556,1.878-3.132,2.718-4.786
				c16.218-31.943,37.411-66.836,7.68-81.349c-68.778-33.575-98.291-4.833-114.51,27.109c-0.84,1.655-1.564,3.335-2.26,5.019
				c-16.549-4.621-33.316-7.816-50.178-9.578c0.106-1.776,0.187-3.555,0.152-5.357c-0.706-35.151,9.725-54.174-24.059-54.831
				c-73.672-1.432-98.528,30.544-97.823,65.695c0.037,1.837,0.191,3.634,0.373,5.418c-16.883,4.812-33.463,10.965-49.602,18.407
				c-0.768-1.568-1.563-3.126-2.475-4.64c-17.439-28.943-54.918-36.05-83.715-15.875c-28.796,20.175-38.001,59.991-20.563,88.933
				c0.893,1.483,1.872,2.869,2.866,4.237c-12.752,12.753-24.694,26.601-35.729,41.456c-1.428-0.895-2.875-1.77-4.404-2.546
				c-29.5-14.978-66.562-1.225-82.779,30.717c-16.219,31.943-5.451,69.979,24.048,84.957c1.528,0.776,3.089,1.428,4.653,2.052
				c-5.48,17.675-9.614,35.488-12.385,53.308c-1.691,0.005-3.388,0.034-5.11,0.186c-33.658,3.002-60.371,33.929-59.667,69.082
				c0.705,35.152,28.562,61.216,62.219,58.215c1.757-0.156,3.486-0.433,5.204-0.739c3.515,17.421,8.333,34.437,14.409,50.907
				c-1.548,0.906-3.088,1.842-4.593,2.896c-28.794,20.173-38,59.991-20.562,88.933c17.438,28.943,75.172,42.389,103.967,22.215
				c1.476-1.034-17.39-8.489-16.018-9.622c11.373,12.573,23.847,24.225,37.343,34.858c-0.947,1.556-1.877,3.132-2.717,4.787
				c-16.218,31.943-5.451,69.98,24.049,84.957c29.5,14.978,66.562,1.225,82.781-30.717c0.84-1.655,1.563-3.335,2.26-5.019
				c16.548,4.621,33.315,7.816,50.178,9.579c-0.105,1.776-0.187,3.555-0.152,5.357c0.705,35.151,28.561,61.216,62.218,58.216
				c33.657-3,60.37-33.929,59.665-69.08c-0.038-1.837-0.191-3.633-0.373-5.417c16.884-4.812,33.464-10.965,49.602-18.407
				c0.767,1.568,1.563,3.126,2.474,4.638c17.439,28.942,54.919,36.052,83.714,15.876c28.797-20.175,38.002-59.99,20.563-88.935
				c-0.894-1.481-1.872-2.867-2.866-4.236c12.752-12.753,24.694-26.601,35.729-41.456
				C2885.322,1077.429,2886.77,1078.304,2888.297,1079.079z M2520.55,1083.746c-107.109-54.381-146.203-192.483-87.319-308.46
				c58.883-115.977,193.446-165.91,300.555-111.529c107.109,54.382,146.202,192.483,87.32,308.46
				C2762.221,1088.195,2627.658,1138.127,2520.55,1083.746z"/>
			
				<linearGradient id="SVGID_00000104702647435442819440000003512559569971301001_" gradientUnits="userSpaceOnUse" x1="1826.1781" y1="443.7063" x2="3645.5752" y2="1380.5846">
				<stop  offset="0" style="stop-color:#444B8C"/>
				<stop  offset="0.9964" style="stop-color:#3E4177"/>
			</linearGradient>
			<path style="fill:url(#SVGID_00000104702647435442819440000003512559569971301001_);" d="M2959.872,907.858
				c33.656-3.001,60.368-33.929,59.665-69.081c-0.705-35.152-28.561-61.218-62.218-58.216c-1.759,0.156-3.487,0.435-5.206,0.74
				c-3.514-17.421-8.333-34.437-14.41-50.907c1.548-0.905,3.089-1.842,4.594-2.897c28.794-20.173,64.419-68.919,44.104-95.919
				c-38.558-51.245-78.461-29.063-107.256-8.891c-1.476,1.034-2.863,2.15-4.234,3.283c-11.375-12.573-23.848-24.223-37.344-34.858
				c0.949-1.556,1.878-3.131,2.718-4.785c8.827-17.385,9.606-36.552,3.776-52.847c-27.813,48.952-55.251,98.109-82.197,147.534
				c85.447,62.615,112.651,186.007,59.24,291.204c-45.26,89.145-135.23,139.201-223.078,132.928
				c-3.919,10.163-7.766,20.381-11.963,30.445c-11.387,27.314-24.324,54.064-37.278,80.78c8.147,1.536,16.329,2.745,24.534,3.604
				c-0.105,1.777-0.187,3.556-0.152,5.358c0.705,35.152,22.047,65.018,83.046,61.783c33.742-1.789,39.542-37.495,38.837-72.647
				c-0.038-1.836-0.19-3.633-0.373-5.417c16.883-4.812,33.464-10.966,49.602-18.408c0.767,1.569,1.563,3.126,2.475,4.638
				c17.439,28.944,77.935,41.24,106.731,21.066c28.796-20.175,14.985-65.179-2.454-94.123c-0.894-1.483-1.872-2.869-2.866-4.237
				c12.752-12.752,24.694-26.6,35.729-41.455c1.427,0.896,2.875,1.771,4.402,2.545c29.5,14.979,66.563,1.225,82.781-30.717
				c16.217-31.941,5.45-69.98-24.05-84.957c-1.528-0.776-3.088-1.428-4.653-2.051c5.48-17.675,9.613-35.489,12.385-53.308
				C2956.45,908.04,2958.147,908.011,2959.872,907.858z"/>
			
				<linearGradient id="SVGID_00000169538484567284476960000011707213420465195397_" gradientUnits="userSpaceOnUse" x1="3001.3069" y1="393.1596" x2="1280.2739" y2="2826.8687">
				<stop  offset="0" style="stop-color:#AA80F9"/>
				<stop  offset="0.9964" style="stop-color:#6165D7"/>
			</linearGradient>
			<path style="fill:url(#SVGID_00000169538484567284476960000011707213420465195397_);" d="M2920.026,1082.688
				c29.5,14.978,66.563,1.225,82.781-30.718c16.217-31.942,5.45-69.979-24.05-84.957c-1.528-0.775-3.088-1.428-4.652-2.052
				c5.48-17.675,9.613-35.488,12.384-53.309c1.69-0.004,3.387-0.033,5.112-0.187c33.657-3,60.369-33.928,59.665-69.08
				c-0.705-35.153-28.561-61.218-62.218-58.218c-1.759,0.158-3.487,0.435-5.205,0.741c-3.515-17.421-8.333-34.438-14.41-50.907
				c1.548-0.906,3.088-1.842,4.594-2.896c28.794-20.173,38.001-59.991,20.562-88.934c-17.439-28.942-54.919-36.05-83.714-15.877
				c-1.476,1.034-2.864,2.151-4.236,3.283c-11.373-12.573-23.847-24.224-37.343-34.858c0.948-1.556,1.878-3.132,2.719-4.786
				c16.217-31.943,5.45-69.979-24.05-84.957c-29.501-14.978-66.562-1.225-82.78,30.717c-0.84,1.655-1.565,3.335-2.261,5.019
				c-16.549-4.621-33.316-7.816-50.177-9.579c0.105-1.777,0.186-3.555,0.151-5.357c-0.706-35.151-28.561-61.216-62.218-58.215
				c-33.657,3-60.369,33.929-59.664,69.079c0.037,1.838,0.191,3.633,0.372,5.418c-16.883,4.813-33.463,10.966-49.602,18.407
				c-0.767-1.568-1.563-3.126-2.474-4.64c-17.438-28.942-54.919-36.05-83.715-15.875c-28.796,20.176-38.001,59.991-20.562,88.934
				c0.894,1.482,1.872,2.869,2.866,4.237c-12.752,12.753-24.695,26.601-35.73,41.456c-1.427-0.895-2.874-1.77-4.403-2.546
				c-29.5-14.978-66.562-1.225-82.78,30.718c-16.219,31.942-5.451,69.979,24.049,84.957c1.529,0.776,3.089,1.428,4.653,2.052
				c-5.48,17.675-9.614,35.488-12.385,53.308c-1.69,0.005-3.388,0.033-5.111,0.186c-33.656,3.002-60.37,33.929-59.665,69.082
				c0.705,35.152,28.561,61.215,62.217,58.215c1.758-0.156,3.487-0.433,5.204-0.739c3.515,17.421,8.333,34.437,14.41,50.908
				c-1.548,0.905-3.089,1.841-4.593,2.896c-28.795,20.173-38.001,59.991-20.562,88.933c17.439,28.943,54.919,36.051,83.713,15.877
				c1.476-1.035,2.864-2.151,4.235-3.284c11.375,12.573,23.848,24.224,37.343,34.858c-0.948,1.556-1.877,3.132-2.717,4.787
				c-16.219,31.943-5.451,69.979,24.049,84.957c29.5,14.977,66.562,1.225,82.78-30.718c0.84-1.654,1.564-3.334,2.26-5.018
				c16.549,4.621,33.317,7.815,50.178,9.578c-0.104,1.776-0.187,3.556-0.152,5.357c0.706,35.151,28.561,61.216,62.218,58.216
				c33.656-3,60.37-33.929,59.664-69.08c-0.036-1.837-0.19-3.633-0.373-5.417c16.883-4.812,33.464-10.965,49.602-18.407
				c0.767,1.567,1.564,3.126,2.475,4.637c17.438,28.943,54.918,36.052,83.713,15.878c28.795-20.175,38.002-59.991,20.564-88.935
				c-0.894-1.481-1.873-2.868-2.866-4.236c12.751-12.752,24.694-26.6,35.729-41.455
				C2917.051,1081.037,2918.498,1081.911,2920.026,1082.688z M2552.279,1087.353c-107.109-54.381-146.203-192.482-87.319-308.46
				c58.885-115.977,193.447-165.909,300.555-111.527c107.109,54.381,146.203,192.483,87.32,308.459
				C2793.95,1091.803,2659.388,1141.735,2552.279,1087.353z"/>
		</g>
		<g>
			
				<linearGradient id="SVGID_00000018228631090984011800000014485048259902531225_" gradientUnits="userSpaceOnUse" x1="2379.1953" y1="1836.8169" x2="3853.9844" y2="1836.8169" gradientTransform="matrix(0.9964 -0.0843 0.0843 0.9964 -697.5371 339.2811)">
				<stop  offset="0" style="stop-color:#FF9085"/>
				<stop  offset="1" style="stop-color:#FB6FBB"/>
			</linearGradient>
			<path style="fill:url(#SVGID_00000018228631090984011800000014485048259902531225_);" d="M2017.841,2745.334
				c-75.903-1.284-144.901-177.172-150.889-320.943c-2.317-55.616-4.622-110.943,27.508-166.632
				c54.226-93.988,137.483-69.325,186.121-145.887c71.821-113.058-59.73-245.533,11.697-339.46
				c52.541-69.092,140.363-19.297,204.073-95.216c73.906-88.069,1.778-209.957,70.209-254.377
				c39.75-25.802,74.554,8.532,188.962-17.491c44.757-10.181,67.136-15.271,85.907-30.944
				c65.817-54.952,15.455-148.498,64.152-218.108c53.604-76.625,195.078-78.277,283.109-54.119
				c157.729,43.284,249.67,198.455,272.243,329.68c4.836,28.111,33.414,211.644-83.179,329.171
				c-84.781,85.462-213.771,103.21-234.69,106.088c-81.504,11.214-101.435-9.869-127.66,11.656
				c-75.804,62.219,72.831,253.047-13.202,402.704c-35.125,61.102-104.085,106.153-169.388,119.322
				c-105.578,21.294-163.237-48.477-215.666-13.382c-67.828,45.405-1.412,182.322-75.009,237.059
				c-52.073,38.727-104.999-15.179-196.693,24.856C2064.045,2684.851,2062.786,2746.094,2017.841,2745.334z"/>
			<path style="opacity:0.5;fill:#F4F7FA;" d="M2001.41,2611.361c35.021,3.149,38.835-91.24,135.388-229.303
				c105.438-150.768,175.537-144.945,274.32-281.189c112.772-155.538,43.725-193.9,139.549-315.648
				c129.872-165.009,270.163-111.641,427.045-305.575c47.059-58.174,109.406-137.539,84.64-219.277
				c-21.474-70.875-105.628-134.248-188.014-121.682c-3.448,0.526-72.563,12.18-108.545,72.245
				c-44.14,73.682,12.988,134.396-29.646,191.692c-22.33,30.01-62.935,39.36-144.143,58.058
				c-116.796,26.893-140.335,4.949-169.319,31.523c-65.493,60.049,30.049,194.69-34.769,266.654
				c-55.648,61.783-159.145-0.737-207.238,57.664c-58.043,70.484,68.012,191.543,14.139,302.645
				c-46.384,95.657-166.191,60.278-232.722,163.011C1883.53,2403.495,1950.873,2606.817,2001.41,2611.361z"/>
		</g>
		<g>
			
				<linearGradient id="SVGID_00000174587766038171918790000009471619048066564529_" gradientUnits="userSpaceOnUse" x1="3292.7256" y1="2050.3381" x2="2317.6082" y2="3131.2805" gradientTransform="matrix(0.9593 -0.2823 0.2823 0.9593 -697.3161 779.4629)">
				<stop  offset="0" style="stop-color:#FFC444"/>
				<stop  offset="0.9964" style="stop-color:#F36F56"/>
			</linearGradient>
			<path style="fill:url(#SVGID_00000174587766038171918790000009471619048066564529_);" d="M2343.269,3010.775
				c64.474-1.565,62.073-120.071,170.599-165.85c120.047-50.64,209.495,57.868,291.513,5.461
				c92.157-58.887,21.67-223.007,124.443-296.785c70.214-50.406,127.955,8.365,217.648-40.266
				c93.489-50.69,175.983-193.284,126.236-320.816c-41.504-106.397-160.54-165.113-251.142-157.243
				c-74.119,6.438-90.852,54.106-156.901,46.747c-82.288-9.169-87.659-86.65-175.504-113.492
				c-87.406-26.708-199.613,14.091-256.444,88.779c-47.257,62.106-45.897,134.073-44.71,196.844
				c3.186,168.515,85.631,225.781,50.9,293.922c-43.335,85.022-189.17,30.157-245.222,115.689
				C2124.536,2770.807,2250.535,3013.027,2343.269,3010.775z"/>
			<path style="opacity:0.5;fill:#F4F7FA;" d="M2300.589,2890.604c23.875,2.46,23.6-74.437,91.27-145.047
				c77.584-80.955,144.682-49.511,233.75-116.055c110.366-82.456,57.399-168.133,154.817-250.418
				c136.562-115.348,328.587-21.27,369.829-108.82c24.096-51.152-16.41-136.436-70.831-160.384
				c-58.075-25.557-91.67,36.483-187.69,31.588c-89.933-4.585-100.275-61.039-212.443-79.318
				c-54.683-8.911-126.515-20.616-168.069,17.936c-81.421,75.538-11.164,311.145,10.282,383.063
				c19.73,66.164,34.603,91.181,19.637,120.292c-39.198,76.248-198.677,16.392-261.906,100.702
				C2226.354,2754.659,2269.746,2887.425,2300.589,2890.604z"/>
		</g>
		<g>
			<g>
				<g>
					<g>
						
							<linearGradient id="SVGID_00000064336951520962373940000008789553818328114590_" gradientUnits="userSpaceOnUse" x1="2176.8997" y1="597.8693" x2="1468.9603" y2="1961.3099">
							<stop  offset="0.0036" style="stop-color:#E38DDD"/>
							<stop  offset="1" style="stop-color:#9571F6"/>
						</linearGradient>
						<path style="fill:url(#SVGID_00000064336951520962373940000008789553818328114590_);" d="M2310.438,461.206L846.087,411.643
							c-33.479-1.134-60.674,24.805-60.674,57.939V3129.61c0,33.134,27.195,58.445,60.674,56.541l1464.352-83.269
							c30.287-1.722,54.792-28.589,54.792-60.015V519.961C2365.231,488.535,2340.725,462.231,2310.438,461.206z"/>
						<g style="opacity:0.3;">
							<path style="fill:#D8DEE8;" d="M1709.614,2425.435c-24.904-304.153,161.932-429.694,90.684-705.259
								c-88.068-340.622-426.789-355.221-542.143-689.243c-44.198-127.98-61.66-321.46,64.86-603.147l-476.929-16.142
								c-33.479-1.134-60.674,24.805-60.674,57.939V3129.61c0,33.134,27.195,58.445,60.674,56.541l1305.707-74.248
								C1819.593,2854.681,1724.92,2612.382,1709.614,2425.435z"/>
						</g>
						
							<linearGradient id="SVGID_00000002365657594129076570000016200410177411373713_" gradientUnits="userSpaceOnUse" x1="2299.7461" y1="575.2682" x2="1218.8855" y2="2343.9468">
							<stop  offset="0" style="stop-color:#FFFFFF"/>
							<stop  offset="0.9964" style="stop-color:#EBEFF2"/>
						</linearGradient>
						<path style="fill:url(#SVGID_00000002365657594129076570000016200410177411373713_);" d="M2310.438,494.793L846.087,446.919
							c-13.723-0.449-24.897,10.229-24.897,23.803v2656.923c0,13.574,11.174,23.994,24.897,23.23l1464.352-81.581
							c12.431-0.692,22.535-11.753,22.535-24.656V518.931C2332.973,506.028,2322.869,495.2,2310.438,494.793z"/>
					</g>
					<g>
						<path style="fill:#D8DEE8;" d="M2033.876,2506.181l-888.539,32.016c-20.975,0.756-38.001,18.358-38.001,39.314l0,0
							c0,20.956,17.026,37.289,38.001,36.481l888.539-34.24c19.736-0.76,35.715-17.826,35.715-38.117l0,0
							C2069.591,2521.343,2053.612,2505.469,2033.876,2506.181z"/>
						<path style="fill:#D8DEE8;" d="M2033.876,2637.23l-888.539,35.977c-20.975,0.849-38.001,18.527-38.001,39.484l0,0
							c0,20.956,17.026,37.213,38.001,36.312l888.539-38.201c19.736-0.849,35.715-17.985,35.715-38.277l0,0
							C2069.591,2652.233,2053.612,2636.431,2033.876,2637.23z"/>
						<path style="fill:#D8DEE8;" d="M2033.876,2768.281l-888.539,39.938c-20.975,0.943-38.001,18.697-38.001,39.653l0,0
							c0,20.956,17.026,37.137,38.001,36.142l888.539-42.161c19.736-0.937,35.715-18.145,35.715-38.436l0,0
							C2069.591,2783.124,2053.612,2767.393,2033.876,2768.281z"/>
					</g>
					<g>
						<path style="fill:#D8DEE8;" d="M1573.114,601.164l-446.958-12.659c-10.391-0.294-18.821,7.875-18.821,18.248l0,0
							c0,10.372,8.429,19.009,18.821,19.291l446.958,12.106c10.08,0.273,18.247-7.78,18.247-17.987l0,0
							C1591.36,609.955,1583.194,601.45,1573.114,601.164z"/>
						<path style="fill:#D8DEE8;" d="M1573.114,667.044l-446.958-11.673c-10.391-0.271-18.821,7.917-18.821,18.29l0,0
							c0,10.372,8.429,18.99,18.821,19.249l446.958,11.119c10.08,0.251,18.247-7.821,18.247-18.027l0,0
							C1591.36,675.794,1583.194,667.307,1573.114,667.044z"/>
						<path style="fill:#D8DEE8;" d="M1573.114,732.923l-446.958-10.687c-10.391-0.249-18.821,7.958-18.821,18.331l0,0
							c0,10.372,8.429,18.972,18.821,19.208l446.958,10.133c10.08,0.229,18.247-7.861,18.247-18.068l0,0
							C1591.36,741.634,1583.194,733.164,1573.114,732.923z"/>
					</g>
				</g>
				<g>
					<g>
						
							<linearGradient id="SVGID_00000001622561393277362760000016743832657538934414_" gradientUnits="userSpaceOnUse" x1="1328.4625" y1="1025.4202" x2="1425.147" y2="1899.4434">
							<stop  offset="0" style="stop-color:#FFC444"/>
							<stop  offset="0.9964" style="stop-color:#F36F56"/>
						</linearGradient>
						<path style="fill:url(#SVGID_00000001622561393277362760000016743832657538934414_);" d="M1400.896,1440.535
							c29.017-54.895,83.327-93.893,146.965-101.163l4.444-271.272c-181.38,4.741-337.619,116.574-407.614,276.875
							L1400.896,1440.535z"/>
						
							<linearGradient id="SVGID_00000018200019755420723840000010312171207567831220_" gradientUnits="userSpaceOnUse" x1="1666.3944" y1="1721.5305" x2="2053.4529" y2="2503.3125">
							<stop  offset="0.0036" style="stop-color:#E38DDD"/>
							<stop  offset="1" style="stop-color:#9571F6"/>
						</linearGradient>
						<path style="fill:url(#SVGID_00000018200019755420723840000010312171207567831220_);" d="M1756.646,1563.899
							c-15.487,90.129-92.852,159.298-186.496,160.168c-27.683,0.257-54.033-5.485-77.856-16.03l-142.15,233.671
							c65.712,34.896,140.7,53.966,220.006,52.512c235.816-4.322,426.832-188.854,448.361-420.424L1756.646,1563.899z"/>
						
							<linearGradient id="SVGID_00000094616515528764418340000002055852315436958861_" gradientUnits="userSpaceOnUse" x1="1101.5669" y1="1407.2585" x2="1619.9248" y2="2073.7185">
							<stop  offset="0" style="stop-color:#AA80F9"/>
							<stop  offset="0.9964" style="stop-color:#6165D7"/>
						</linearGradient>
						<path style="fill:url(#SVGID_00000094616515528764418340000002055852315436958861_);" d="M1306.24,1915.102l142.558-233.873
							c-42.95-35.249-70.413-89.096-70.413-149.589c0-14.616,1.616-28.854,4.657-42.551l-256.511-95.203
							c-13.51,43.769-20.793,90.296-20.793,138.523C1105.738,1692.105,1185.346,1832.192,1306.24,1915.102z"/>
					</g>
					<g>
						
							<linearGradient id="SVGID_00000107573036625180204370000011994574939602633352_" gradientUnits="userSpaceOnUse" x1="2176.8464" y1="822.3527" x2="1762.647" y2="1399.9519">
							<stop  offset="0" style="stop-color:#FF9085"/>
							<stop  offset="1" style="stop-color:#FB6FBB"/>
						</linearGradient>
						<path style="fill:url(#SVGID_00000107573036625180204370000011994574939602633352_);" d="M1598.655,1340.389
							c85.573,13.331,152.077,84.367,160.018,172.41l433.386,17.127c0-0.194,0.003-0.387,0.003-0.58
							c0-335.889-256.455-614.984-586.036-639.774L1598.655,1340.389z"/>
					</g>
				</g>
				<path style="opacity:0.35;fill:#FFFFFF;" d="M1712.983,2425.323c-24.899-304.118,161.895-429.645,90.664-705.179
					c-88.049-340.584-426.692-355.181-542.019-689.164c-42.365-122.686-60.162-305.587,49.989-568.841l-461.962-15.103
					c-13.72-0.449-24.891,10.228-24.891,23.801v2656.613c0,13.572,11.171,23.991,24.891,23.227l1265.755-70.517
					C1815.263,2834.606,1727.653,2604.511,1712.983,2425.323z"/>
			</g>
			<g>
				
					<linearGradient id="SVGID_00000144324139890622897280000014443931226653735600_" gradientUnits="userSpaceOnUse" x1="923.2585" y1="801.2218" x2="524.7139" y2="2106.9785">
					<stop  offset="0" style="stop-color:#FFC444"/>
					<stop  offset="0.9964" style="stop-color:#F36F56"/>
				</linearGradient>
				<path style="fill:url(#SVGID_00000144324139890622897280000014443931226653735600_);" d="M1223.257,1181.46l-708.698-7.054
					c-16.026-0.159-29.034-12.926-29.034-28.515V876.338c0-15.588,13.008-27.916,29.034-27.534l616.961,14.695
					c15.175,0.362,27.461,12.929,27.461,28.071v231.674L1223.257,1181.46z"/>
				<polygon style="opacity:0.67;fill:#FFFFFF;" points="1059.434,960.914 590.106,951.764 590.106,919.449 1059.434,929.247 				
					"/>
				<polygon style="opacity:0.67;fill:#FFFFFF;" points="1059.434,1024.248 590.106,1016.394 590.106,984.079 1059.434,992.581 				
					"/>
				<polygon style="opacity:0.67;fill:#FFFFFF;" points="1059.434,1087.582 590.106,1081.024 590.106,1048.709 1059.434,1055.915 
									"/>
			</g>
			<g>
				
					<linearGradient id="SVGID_00000021099054715734380260000007093287687421291921_" gradientUnits="userSpaceOnUse" x1="-7309.4644" y1="-3161.48" x2="-7886.8916" y2="-2356.2605" gradientTransform="matrix(-1 0 0 -1 -5902 -287)">
					<stop  offset="0" style="stop-color:#FF9085"/>
					<stop  offset="1" style="stop-color:#FB6FBB"/>
				</linearGradient>
				<path style="opacity:0.3;fill:url(#SVGID_00000021099054715734380260000007093287687421291921_);" d="M1574.821,2088.627
					l633.172-13.609c16.482-0.354,29.83,13.179,29.83,30.228v294.801c0,17.048-13.348,31.319-29.83,31.875l-667.355,22.494
					c-17.263,0.582-31.273-13.111-31.273-30.585v-385.357L1574.821,2088.627z"/>
				<polygon style="opacity:0.67;fill:#FFFFFF;" points="1622.065,2338.198 2129.739,2323.018 2129.739,2358.649 1622.065,2374.446 
									"/>
				<polygon style="opacity:0.67;fill:#FFFFFF;" points="1622.065,2265.701 2129.739,2251.756 2129.739,2287.387 1622.065,2301.949 
									"/>
				<polygon style="opacity:0.67;fill:#FFFFFF;" points="1622.065,2193.204 2129.739,2180.494 2129.739,2216.125 1622.065,2229.453 
									"/>
			</g>
		</g>
		<g>
			
				<linearGradient id="SVGID_00000147209798488367606100000002395502605780992179_" gradientUnits="userSpaceOnUse" x1="3117.2456" y1="2964.8796" x2="3140.3938" y2="3259.4905" gradientTransform="matrix(1 -0.0024 0.0024 1 -794.8005 3.3687)">
				<stop  offset="0" style="stop-color:#311944"/>
				<stop  offset="1" style="stop-color:#A03976"/>
			</linearGradient>
			<path style="fill:url(#SVGID_00000147209798488367606100000002395502605780992179_);" d="M2375.059,3107.588
				c0,0-93.078,42.573-94.583,49.337c-1.506,6.764,59.918-2.41,85.004-1.496c25.086,0.916,45.703-6.548,43.408-17.168
				c-2.298-10.619-11.142-37.321-11.142-37.321L2375.059,3107.588z"/>
			
				<linearGradient id="SVGID_00000029025293081700906560000002236905210334281349_" gradientUnits="userSpaceOnUse" x1="3177.0039" y1="3128.8994" x2="3172.7957" y2="2823.7759" gradientTransform="matrix(1 -0.0024 0.0024 1 -794.8005 3.3687)">
				<stop  offset="0" style="stop-color:#FFC444"/>
				<stop  offset="0.9964" style="stop-color:#F36F56"/>
			</linearGradient>
			<path style="fill:url(#SVGID_00000029025293081700906560000002236905210334281349_);" d="M2371.567,3073.227l5.769,41.939
				c0,0,14.764,5.215,24.658-1.017l4.117-46.022L2371.567,3073.227z"/>
			
				<linearGradient id="SVGID_00000093153322744700341490000004960732902148407708_" gradientUnits="userSpaceOnUse" x1="3554.6843" y1="2930.5149" x2="3577.8315" y2="3225.1157" gradientTransform="matrix(1 -0.0024 0.0024 1 -794.8005 3.3687)">
				<stop  offset="0" style="stop-color:#311944"/>
				<stop  offset="1" style="stop-color:#A03976"/>
			</linearGradient>
			<path style="fill:url(#SVGID_00000093153322744700341490000004960732902148407708_);" d="M2810.383,3073.18l10.88,17.372
				c3.043,4.859,3.961,10.714,2.521,16.264c-3.756,14.478-11.258,42.693-14.541,50.053c-4.47,10.026-64.755,16.12-64.755,16.12
				s-5.395-7.553,7.103-16.723c12.496-9.17,20.541-10.626,24.927-24.125c4.384-13.495,7.241-51.651,7.241-51.651L2810.383,3073.18z"
				/>
			
				<linearGradient id="SVGID_00000165224038193444979190000002371245073563475381_" gradientUnits="userSpaceOnUse" x1="3577.8967" y1="3123.3699" x2="3573.6882" y2="2818.2373" gradientTransform="matrix(1 -0.0024 0.0024 1 -794.8005 3.3687)">
				<stop  offset="0" style="stop-color:#FFC444"/>
				<stop  offset="0.9964" style="stop-color:#F36F56"/>
			</linearGradient>
			<path style="fill:url(#SVGID_00000165224038193444979190000002371245073563475381_);" d="M2765.164,3029.072
				c3.967,3.147,23.474,61.883,23.474,61.883s6.289,8.001,18.168-3.858c11.879-11.859,5.377-5.32,5.377-5.32l-2.373-57.81
				L2765.164,3029.072z"/>
			
				<linearGradient id="SVGID_00000131350096469003614760000011902316624671154083_" gradientUnits="userSpaceOnUse" x1="3104.1829" y1="2634.6035" x2="3329.7847" y2="2634.6035" gradientTransform="matrix(1 -0.0024 0.0024 1 -794.8005 3.3687)">
				<stop  offset="0" style="stop-color:#444B8C"/>
				<stop  offset="0.9964" style="stop-color:#3E4177"/>
			</linearGradient>
			<path style="fill:url(#SVGID_00000131350096469003614760000011902316624671154083_);" d="M2318.274,2230.495
				c-4.615,125.155-4.489,261.119,3.061,406.352c8.5,163.542,25.155,314.677,46.016,451.666c7.634,0.225,15.654,0.246,24.031-0.009
				c5.657-0.17,11.138-0.46,16.436-0.838c10.586-28.441,23.091-65.84,34.262-110.5c11.743-46.962,18.795-89.077,23.795-129.347
				c17.603-141.786-3.455-154.102,10.855-259.182c12.673-93.064,31.005-96.741,52.218-228.879
				c23.015-143.375,5.574-164.834-2.903-172.58C2489.966,2154.198,2405.454,2176.912,2318.274,2230.495z"/>
			
				<linearGradient id="SVGID_00000162328021359066300050000009088167756280683965_" gradientUnits="userSpaceOnUse" x1="3104.1824" y1="2634.6133" x2="3329.7832" y2="2634.6133" gradientTransform="matrix(1 -0.0024 0.0024 1 -794.8005 3.3687)">
				<stop  offset="0" style="stop-color:#444B8C"/>
				<stop  offset="0.9964" style="stop-color:#3E4177"/>
			</linearGradient>
			<path style="opacity:0.3;fill:url(#SVGID_00000162328021359066300050000009088167756280683965_);" d="M2526.046,2187.179
				c-34.413-31.457-112.895-12.174-195.719,36.16c95.663,102.859,106.226,169.708,94.891,213.127
				c-12.809,49.072-52.079,63.291-51.801,116.915c0.343,65.898,59.86,83.212,58.763,152.948
				c-0.725,46.113-26.861,45.697-32.896,102.665c-7.141,67.404,27.058,90.542,16.119,140.427
				c-4.706,21.461-18.218,49.521-56.823,78.486c2.838,20.467,5.746,40.728,8.774,60.606c7.631,0.223,15.652,0.246,24.029-0.011
				c5.657-0.169,11.141-0.458,16.435-0.837c10.588-28.441,23.093-65.838,34.263-110.499c11.743-46.963,18.795-89.077,23.795-129.348
				c17.602-141.785-3.455-154.102,10.855-259.182c12.673-93.064,31.005-96.743,52.217-228.88
				C2551.963,2216.382,2534.523,2194.924,2526.046,2187.179z"/>
			
				<linearGradient id="SVGID_00000158006329329467433520000007771609831406432128_" gradientUnits="userSpaceOnUse" x1="3166.8145" y1="2612.3647" x2="3620.9766" y2="2612.3647" gradientTransform="matrix(1 -0.0024 0.0024 1 -794.8005 3.3687)">
				<stop  offset="0" style="stop-color:#444B8C"/>
				<stop  offset="0.9964" style="stop-color:#3E4177"/>
			</linearGradient>
			<path style="fill:url(#SVGID_00000158006329329467433520000007771609831406432128_);" d="M2377.372,2228.251
				c82.445,120.014,171.419,269.41,251.097,448.295c60.213,135.185,103.953,262.14,136.115,375.303
				c4.32,1.987,14.509,5.948,27.512,4.198c17.736-2.389,28.342-13.74,31.114-16.907c12.784-81.208,11.188-149.955,6.664-199.563
				c-2.897-31.761-8.016-84.654-28.423-149.917c-22.857-73.103-38.46-77.176-68.237-154.505
				c-30.905-80.263-23.514-100.328-53.167-200.794c-12.182-41.272-32.556-102.683-66.107-176.121
				C2535.083,2181.576,2456.227,2204.914,2377.372,2228.251z"/>
			
				<linearGradient id="SVGID_00000165912713296599265810000000498402225439957900_" gradientUnits="userSpaceOnUse" x1="2756.1667" y1="1581.0791" x2="2244.4539" y2="2421.2053">
				<stop  offset="0" style="stop-color:#AA80F9"/>
				<stop  offset="0.9964" style="stop-color:#6165D7"/>
			</linearGradient>
			<path style="fill:url(#SVGID_00000165912713296599265810000000498402225439957900_);" d="M2042.463,2058.915
				c0.781,29.203,48.778,54.925,87.424,62.814c90.36,18.442,195.121-47.214,244.844-119.843
				c9.763-14.261,20.612-31.552,23.227-30.214c5.911,3.028-48.41,92.28-71.963,193.792c-12.05,51.931-8.895,76.253-31.423,110.826
				c-5.103,7.832-11.391,15.986-9.181,25.253c5.534,23.204,58.602,29.23,95.414,33.409c38.865,4.413,75.107,3.985,110.936,3.462
				c57.355-0.837,61.873-3.817,74.965,2.61c39.894,19.578,37.19,66.489,67.211,72.745c25.211,5.255,50.785-22.899,58.894-31.824
				c42.148-46.397,39.896-102.336,47.371-158.758c17.379-131.176,88.645-274.891,158.359-365.869
				c21.144-27.592,35.846-42.106,36.764-67.749c2.696-75.275-116.558-158.371-215.847-167.919
				c-27.215-2.616-75.948-1.792-121.633,2.516c-18.259,1.719-37.699,4.252-58.593,7.908c-50.672,8.865-85.947,15.034-121.897,31.482
				c-144.965,66.328-113.329,213.973-270.231,316.057C2093.153,2014.711,2041.645,2028.334,2042.463,2058.915z"/>
			
				<linearGradient id="SVGID_00000075130569737225094150000005998039823281644176_" gradientUnits="userSpaceOnUse" x1="2652.3298" y1="1570.3774" x2="2604.134" y2="1995.53">
				<stop  offset="0" style="stop-color:#FFC444"/>
				<stop  offset="0.9964" style="stop-color:#F36F56"/>
			</linearGradient>
			<path style="fill:url(#SVGID_00000075130569737225094150000005998039823281644176_);" d="M2636.429,1543.561
				c0,0,6.226,34.746,20.557,59.48c12.953,22.354,66.506,30.367,77.663,34.258c11.157,3.89-16.832,23.321-46.598,30.366
				c-29.763,7.047-116.829,11.652-133.88,2.281c-17.052-9.37,11.073-12.235,31.555-23.003c20.482-10.768,27.332-54.538,20.99-73.146
				C2600.373,1555.186,2636.429,1543.561,2636.429,1543.561z"/>
			<g>
				
					<linearGradient id="SVGID_00000065041036111687552500000013518411292919989893_" gradientUnits="userSpaceOnUse" x1="4508.7222" y1="2365.2595" x2="4431.3154" y2="2168.6614" gradientTransform="matrix(0.9989 0.0475 -0.0475 0.9989 -1725.9976 -907.3022)">
					<stop  offset="0" style="stop-color:#444B8C"/>
					<stop  offset="0.9964" style="stop-color:#3E4177"/>
				</linearGradient>
				<path style="fill:url(#SVGID_00000065041036111687552500000013518411292919989893_);" d="M2579.841,1533.505
					c-21.6-15.437-27.581-57.182-15.585-66.553c3.429-2.678,6.705-1.448,55.451,18.105c24.206,9.712,36.113,14.882,40.034,25.573
					c2.395,6.526,2.007,15.341-0.637,22.288c-1.362,3.574-4.016,8.025-9.916,16.518c-5.237,7.536-4.884,7.281-6.489,9.472
					c-3.856,5.262-11.295,14.121-24.925,24.39c-0.758-3.843-1.956-8.61-3.963-13.809c-0.772-2.001-3.886-9.821-8.823-16.408
					C2596.49,1541.742,2586.851,1538.516,2579.841,1533.505z"/>
				
					<linearGradient id="SVGID_00000169534244033332458900000007049045390694026884_" gradientUnits="userSpaceOnUse" x1="2608.9529" y1="1521.4438" x2="2646.8206" y2="1834.7136">
					<stop  offset="0" style="stop-color:#FFC444"/>
					<stop  offset="0.9964" style="stop-color:#F36F56"/>
				</linearGradient>
				<path style="fill:url(#SVGID_00000169534244033332458900000007049045390694026884_);" d="M2635.198,1573.205
					c0,0-14.133,21.053-40.309,18.196c-23.437-2.559-24.574-55.417-9.071-65.947c5.171-3.513,15.27-4.622,23.327-1.98
					c4.759,1.561,6.301,3.636,14.126,6.033c7.217,2.213,9.315,1.493,11.437,3.446c2.655,2.44,4.425,8.215-0.853,23.424
					c4.683-4.346,10.143-5.852,13.877-3.885c0.595,0.314,2.162,1.483,2.996,3.186
					C2653.75,1561.844,2647.918,1569.291,2635.198,1573.205z"/>
			</g>
			
				<linearGradient id="SVGID_00000150100596369667726630000002580003558654275716_" gradientUnits="userSpaceOnUse" x1="2056.6611" y1="2015.0532" x2="2422.0315" y2="2015.0532">
				<stop  offset="0" style="stop-color:#AA80F9"/>
				<stop  offset="0.9964" style="stop-color:#6165D7"/>
			</linearGradient>
			<path style="opacity:0.3;fill:url(#SVGID_00000150100596369667726630000002580003558654275716_);" d="M2169.214,2054.427
				c65.515-14.755,91.62-14.28,124.019-40.383c53.94-43.462,62.042-109.61,93.388-108.802c14.813,0.382,26.847,15.51,35.41,30.324
				c-7.891,12.359-15.782,24.718-23.674,37.076c-0.032-0.47-0.136-0.834-0.399-0.969c-2.615-1.338-13.464,15.953-23.227,30.214
				c-49.724,72.629-154.485,138.285-244.844,119.843c-25.909-5.289-55.956-18.613-73.226-35.606
				C2101.258,2071.058,2139.348,2061.154,2169.214,2054.427z"/>
			
				<linearGradient id="SVGID_00000120555010209396915130000009020465913795101107_" gradientUnits="userSpaceOnUse" x1="6021.6914" y1="854.3417" x2="6103.8667" y2="854.3417" gradientTransform="matrix(0.8553 0.5182 -0.5182 0.8553 -2728.719 -1761.0112)">
				<stop  offset="0" style="stop-color:#FFC444"/>
				<stop  offset="0.9964" style="stop-color:#F36F56"/>
			</linearGradient>
			<path style="fill:url(#SVGID_00000120555010209396915130000009020465913795101107_);" d="M2062.511,2110.758
				c0,0-36.968-3.677-58.996-13.102c-22.028-9.426-36.258,4.108-34.234,13.478c2.024,9.367,38.265,22.41,52.744,22.878
				C2036.502,2134.481,2062.511,2110.758,2062.511,2110.758z"/>
			
				<linearGradient id="SVGID_00000006702876978311548910000018230366439536567708_" gradientUnits="userSpaceOnUse" x1="3033.0288" y1="1749.7137" x2="2521.3147" y2="2589.8418">
				<stop  offset="0" style="stop-color:#AA80F9"/>
				<stop  offset="0.9964" style="stop-color:#6165D7"/>
			</linearGradient>
			<path style="fill:url(#SVGID_00000006702876978311548910000018230366439536567708_);" d="M2858.698,2306.299
				c39.691,3.541,129.035,5.156,192.225-53.304c105.199-97.319,53.011-282.566,16.393-362.234
				c-41.983-91.344-108.804-142.472-149.412-173.544c-50.38-38.55-81.131-62.078-118.126-56.809
				c-95.679,13.626-161.943,209.723-109.418,265.866c17.196,18.379,34.223,7.972,83.987,23.82
				c16.205,5.162,137.159,43.686,158.218,132.77c14.739,62.35-22.787,135.358-89.577,184.392
				C2848.225,2280.269,2853.461,2293.284,2858.698,2306.299z"/>
			
				<linearGradient id="SVGID_00000021085309466415438120000009977399684304210058_" gradientUnits="userSpaceOnUse" x1="2288.9741" y1="2130.9417" x2="3038.5801" y2="2130.9417">
				<stop  offset="0" style="stop-color:#AA80F9"/>
				<stop  offset="0.9964" style="stop-color:#6165D7"/>
			</linearGradient>
			<path style="opacity:0.3;fill:url(#SVGID_00000021085309466415438120000009977399684304210058_);" d="M2413.813,2273.998
				c44.935-28.397,51.583-57.177,101.9-76.624c65.368-25.265,96.78,6.828,129.188-19.082c38.568-30.836,4.426-84.557,33.289-177.781
				c4.899-15.823,42.106-136.008,127.481-151.32c39.811-7.14,92.393,8.111,112.654,41.848c15.857,26.402,1.085,46.085,20.364,75.232
				c19.266,29.129,42.309,22.004,66.869,46.298c38.997,38.577,44.975,119.923,9.767,165.927
				c-16.422,21.457-37.762,29.942-77.916,45.909c-24.527,9.751-47.327,15.818-66.962,19.669
				c49.168-47.191,74.684-108.051,62.117-161.212c-13.126-55.53-65.066-91.41-106.258-111.814
				c-41.219,77.571-74.907,167.457-86.125,252.137c-7.475,56.422-5.223,112.361-47.371,158.758
				c-8.108,8.926-33.683,37.08-58.894,31.824c-30.021-6.256-27.317-53.167-67.211-72.745c-13.092-6.427-17.609-3.447-74.965-2.61
				c-35.829,0.524-72.07,0.951-110.936-3.462c-32.737-3.718-78.247-8.927-91.831-26.349
				C2348.075,2306.995,2387.518,2290.615,2413.813,2273.998z"/>
			<g>
				
					<linearGradient id="SVGID_00000138554722737467309210000004163633977009947045_" gradientUnits="userSpaceOnUse" x1="1908.8942" y1="2185.9939" x2="2839.4221" y2="2185.9939">
					<stop  offset="0" style="stop-color:#444B8C"/>
					<stop  offset="0.9964" style="stop-color:#26264F"/>
				</linearGradient>
				<path style="fill:url(#SVGID_00000138554722737467309210000004163633977009947045_);" d="M2832.639,2337.493l4.624-13.601
					c7.372-21.687-4.749-44.815-27.057-51.611l-874.66-266.438l-26.652,90.334l870.242,268.044
					C2801.329,2371.056,2825.291,2359.111,2832.639,2337.493z"/>
				
					<linearGradient id="SVGID_00000163037503922873234570000012035654603217427876_" gradientUnits="userSpaceOnUse" x1="1050.693" y1="1892.2681" x2="2010.8256" y2="1892.2681">
					<stop  offset="0" style="stop-color:#444B8C"/>
					<stop  offset="0.9964" style="stop-color:#26264F"/>
				</linearGradient>
				<path style="fill:url(#SVGID_00000163037503922873234570000012035654603217427876_);" d="M1066.384,1761.104
					c66.874-264.198,328.932-423.417,588.096-348.797c263.921,75.99,415.02,361.948,334.833,631.506
					c-78.304,263.229-346.836,405.233-597.413,324.019C1145.652,2288.021,1001.03,2019.293,1066.384,1761.104z M1913.184,2020.494
					c66.273-225.589-60.175-464.523-280.565-528.637c-217.061-63.146-437.587,69.396-494.491,291.224
					c-55.814,217.571,66.066,444.356,273.993,511.163C1623.126,2362.039,1848.218,2241.638,1913.184,2020.494z"/>
				<path style="opacity:0.3;fill:#D8DEE8;" d="M1935.546,2005.843l111.523,33.972c7.652,35.569,22.53,55.948,37.504,68.359
					c56.331,46.697,131.551-4.232,236.493,50.523c52.66,27.477,42.654,44.962,92.014,64.134
					c81.604,31.696,118.958-12.209,191.177,16.64c73.048,29.181,80.25,92.242,121.678,89.979
					c17.722-0.967,40.537-13.86,65.977-62.741l18.294,5.573c22.308,6.795,34.429,29.922,27.057,51.611l-4.624,13.6
					c-7.35,21.617-31.311,33.563-53.503,26.727l-870.242-268.044L1935.546,2005.843z"/>
				<path style="opacity:0.56;fill:#FFFFFF;" d="M1391.471,2330.398c218.259,70.239,451.285-54.145,518.669-282.99
					c68.786-233.61-62.158-481.109-290.474-547.404c-224.746-65.259-452.881,72.129-511.631,301.705
					C1050.45,2026.732,1176.503,2261.219,1391.471,2330.398z"/>
				
					<linearGradient id="SVGID_00000092444678628810518020000013592983335223167901_" gradientUnits="userSpaceOnUse" x1="-6688.8237" y1="3419.2512" x2="-7172.2666" y2="2877.9607" gradientTransform="matrix(-0.8705 0.4922 0.4922 0.8705 -6104.4209 2747.6741)">
					<stop  offset="0" style="stop-color:#444B8C"/>
					<stop  offset="0.9964" style="stop-color:#26264F"/>
				</linearGradient>
				<path style="fill:url(#SVGID_00000092444678628810518020000013592983335223167901_);" d="M1049.442,1783.762
					c66.874-264.198,328.932-423.417,588.096-348.797c263.922,75.99,415.02,361.948,334.833,631.506
					c-78.305,263.23-346.837,405.234-597.414,324.019C1128.712,2310.679,984.089,2041.951,1049.442,1783.762z M1896.244,2043.152
					c66.273-225.59-60.175-464.522-280.565-528.637c-217.061-63.146-437.586,69.396-494.492,291.224
					c-55.813,217.572,66.067,444.355,273.994,511.162C1606.185,2384.696,1831.277,2264.296,1896.244,2043.152z"/>
				
					<linearGradient id="SVGID_00000137851014312636204090000000060561610802801049_" gradientUnits="userSpaceOnUse" x1="-7399.4883" y1="2628.936" x2="-6743.8208" y2="3350.7219" gradientTransform="matrix(-0.8705 0.4922 0.4922 0.8705 -6104.4209 2747.6741)">
					<stop  offset="0" style="stop-color:#444B8C"/>
					<stop  offset="0.9964" style="stop-color:#26264F"/>
				</linearGradient>
				<path style="fill:url(#SVGID_00000137851014312636204090000000060561610802801049_);" d="M1074.774,1791.521
					c63.38-249.211,310.769-398.944,555.017-328.36c248.469,71.804,390.83,341.076,315.612,595.049
					c-73.551,248.349-326.702,382.761-563.308,306.31C1149.352,2289.317,1012.754,2035.377,1074.774,1791.521z M1896.244,2043.152
					c66.273-225.59-60.175-464.522-280.565-528.637c-217.061-63.146-437.586,69.396-494.492,291.224
					c-55.813,217.572,66.067,444.355,273.994,511.162C1606.185,2384.696,1831.277,2264.296,1896.244,2043.152z"/>
			</g>
			
				<linearGradient id="SVGID_00000142136280218124081400000011529119545759305899_" gradientUnits="userSpaceOnUse" x1="-5393.7749" y1="666.4177" x2="-5375.5854" y2="563.4592" gradientTransform="matrix(-0.8553 -0.5182 -0.5182 0.8553 -1479.6936 -1003.974)">
				<stop  offset="0" style="stop-color:#FFC444"/>
				<stop  offset="0.9964" style="stop-color:#F36F56"/>
			</linearGradient>
			<path style="fill:url(#SVGID_00000142136280218124081400000011529119545759305899_);" d="M2855.328,2297.925l-8.84-21.969
				c0,0-14.43,0.879-26.272-7.612c-6.453-4.627-17.903-6.005-21.231-5.081c-3.327,0.923-15.896,0.373-1.57,7.209
				c14.324,6.833,14.212,11.911,8.241,17.521c-5.971,5.609-28.693,17.677-36.871,18.256c-8.179,0.582,6.609,13.231,14.856,14.847
				c8.249,1.613,21.774,3.656,38.507-6.195C2828.253,2311.309,2855.328,2297.925,2855.328,2297.925z"/>
		</g>
		<g>
			
				<linearGradient id="SVGID_00000129182338865972523000000005836155988550786234_" gradientUnits="userSpaceOnUse" x1="1756.2692" y1="582.0618" x2="2458.7632" y2="943.8033">
				<stop  offset="0" style="stop-color:#444B8C"/>
				<stop  offset="0.9964" style="stop-color:#3E4177"/>
			</linearGradient>
			<path style="fill:url(#SVGID_00000129182338865972523000000005836155988550786234_);" d="M2168.13,823.965
				c11.39,5.783,25.701,0.473,31.962-11.86c6.262-12.333,2.104-27.02-9.286-32.803c-0.59-0.3-1.192-0.552-1.796-0.792
				c2.116-6.825,3.711-13.702,4.782-20.583c0.653-0.002,1.308-0.013,1.974-0.072c12.995-1.158,23.309-13.1,23.037-26.673
				c-0.272-13.573-11.028-23.637-24.023-22.478c-0.679,0.061-1.346,0.168-2.01,0.286c-1.357-6.726-3.218-13.297-5.564-19.656
				c0.598-0.35,1.193-0.711,1.774-1.118c11.118-7.789,14.673-23.163,7.939-34.338c-6.733-11.175-21.205-13.919-32.323-6.13
				c-0.57,0.399-1.105,0.83-1.635,1.268c-4.391-4.854-9.208-9.353-14.419-13.459c0.366-0.601,0.725-1.209,1.049-1.848
				c6.262-12.333,14.445-25.806,2.965-31.41c-26.556-12.964-37.951-1.866-44.214,10.467c-0.324,0.639-0.604,1.288-0.873,1.938
				c-6.39-1.784-12.864-3.018-19.375-3.698c0.041-0.686,0.072-1.373,0.059-2.068c-0.273-13.572,3.755-20.917-9.29-21.171
				c-28.446-0.553-38.043,11.794-37.771,25.366c0.014,0.709,0.074,1.403,0.144,2.092c-6.519,1.858-12.921,4.234-19.152,7.107
				c-0.296-0.605-0.604-1.207-0.955-1.792c-6.733-11.175-21.205-13.919-32.323-6.129c-11.118,7.79-14.673,23.163-7.939,34.338
				c0.345,0.573,0.723,1.108,1.106,1.636c-4.924,4.924-9.535,10.271-13.795,16.007c-0.551-0.346-1.11-0.683-1.7-0.983
				c-11.391-5.783-25.701-0.473-31.962,11.86c-6.262,12.333-2.105,27.02,9.285,32.803c0.59,0.3,1.193,0.551,1.797,0.792
				c-2.116,6.825-3.712,13.702-4.782,20.583c-0.653,0.002-1.308,0.013-1.973,0.072c-12.996,1.159-23.31,13.1-23.038,26.674
				c0.272,13.573,11.028,23.636,24.023,22.478c0.678-0.06,1.346-0.167,2.009-0.285c1.357,6.726,3.217,13.297,5.564,19.656
				c-0.598,0.35-1.193,0.711-1.773,1.118c-11.118,7.789-14.672,23.163-7.939,34.338c6.733,11.175,29.025,16.367,40.143,8.578
				c0.57-0.399-6.714-3.278-6.185-3.715c4.391,4.855,9.208,9.353,14.419,13.459c-0.366,0.601-0.725,1.209-1.049,1.848
				c-6.262,12.333-2.105,27.02,9.286,32.803c11.39,5.783,25.7,0.473,31.963-11.86c0.324-0.639,0.604-1.288,0.873-1.938
				c6.39,1.784,12.864,3.018,19.374,3.699c-0.041,0.686-0.072,1.373-0.059,2.068c0.272,13.573,11.028,23.636,24.023,22.478
				c12.996-1.159,23.31-13.1,23.038-26.673c-0.014-0.709-0.074-1.403-0.144-2.092c6.519-1.858,12.921-4.234,19.152-7.107
				c0.296,0.605,0.604,1.207,0.955,1.791c6.733,11.175,21.205,13.92,32.323,6.13c11.119-7.79,14.673-23.163,7.94-34.339
				c-0.345-0.572-0.723-1.107-1.106-1.635c4.924-4.924,9.534-10.271,13.795-16.007
				C2166.981,823.328,2167.54,823.666,2168.13,823.965z M2026.138,825.767c-41.356-20.997-56.451-74.32-33.715-119.1
				c22.736-44.78,74.692-64.06,116.048-43.063c41.356,20.997,56.451,74.32,33.715,119.101
				C2119.45,827.485,2067.494,846.764,2026.138,825.767z"/>
			
				<linearGradient id="SVGID_00000032627322620928365110000002534632901755823491_" gradientUnits="userSpaceOnUse" x1="1758.0315" y1="578.6392" x2="2460.5251" y2="940.3804">
				<stop  offset="0" style="stop-color:#444B8C"/>
				<stop  offset="0.9964" style="stop-color:#3E4177"/>
			</linearGradient>
			<path style="fill:url(#SVGID_00000032627322620928365110000002534632901755823491_);" d="M2195.766,757.854
				c12.995-1.159,23.309-13.1,23.037-26.673c-0.272-13.573-11.028-23.637-24.023-22.478c-0.679,0.06-1.346,0.168-2.01,0.286
				c-1.357-6.727-3.218-13.297-5.564-19.656c0.598-0.349,1.193-0.711,1.774-1.119c11.118-7.789,24.873-26.61,17.029-37.036
				c-14.888-19.786-30.295-11.222-41.413-3.433c-0.57,0.399-1.105,0.83-1.635,1.268c-4.392-4.855-9.208-9.353-14.419-13.459
				c0.366-0.601,0.725-1.209,1.049-1.848c3.408-6.713,3.709-14.113,1.458-20.405c-10.739,18.901-21.333,37.881-31.737,56.965
				c32.992,24.176,43.496,71.82,22.874,112.438c-17.476,34.42-52.214,53.747-86.134,51.325c-1.513,3.924-2.999,7.869-4.619,11.755
				c-4.397,10.546-9.392,20.875-14.393,31.19c3.146,0.593,6.305,1.06,9.473,1.391c-0.041,0.686-0.072,1.373-0.059,2.069
				c0.272,13.573,8.513,25.104,32.065,23.855c13.028-0.691,15.268-14.477,14.996-28.05c-0.014-0.709-0.073-1.403-0.144-2.092
				c6.519-1.858,12.921-4.234,19.152-7.107c0.296,0.606,0.604,1.207,0.956,1.791c6.733,11.175,30.092,15.923,41.21,8.134
				c11.119-7.79,5.786-25.167-0.948-36.342c-0.345-0.573-0.723-1.108-1.106-1.636c4.924-4.924,9.535-10.271,13.795-16.006
				c0.551,0.346,1.11,0.684,1.7,0.982c11.39,5.784,25.701,0.473,31.963-11.86c6.262-12.333,2.104-27.02-9.286-32.803
				c-0.59-0.3-1.192-0.551-1.796-0.792c2.116-6.825,3.711-13.703,4.782-20.583C2194.445,757.924,2195.1,757.914,2195.766,757.854z"
				/>
			
				<linearGradient id="SVGID_00000181080976640560381930000004219419149486974135_" gradientUnits="userSpaceOnUse" x1="2211.7644" y1="559.1223" x2="1547.2504" y2="1498.8103">
				<stop  offset="0" style="stop-color:#AA80F9"/>
				<stop  offset="0.9964" style="stop-color:#6165D7"/>
			</linearGradient>
			<path style="fill:url(#SVGID_00000181080976640560381930000004219419149486974135_);" d="M2180.381,825.358
				c11.39,5.783,25.701,0.473,31.963-11.86c6.262-12.333,2.104-27.02-9.286-32.803c-0.59-0.299-1.193-0.551-1.796-0.792
				c2.116-6.824,3.712-13.702,4.782-20.583c0.653-0.002,1.308-0.013,1.974-0.072c12.995-1.158,23.309-13.1,23.038-26.673
				c-0.272-13.573-11.028-23.637-24.023-22.479c-0.679,0.061-1.346,0.168-2.01,0.286c-1.357-6.726-3.217-13.297-5.564-19.656
				c0.598-0.35,1.193-0.711,1.774-1.118c11.118-7.789,14.673-23.163,7.939-34.338c-6.733-11.175-21.205-13.919-32.323-6.13
				c-0.57,0.399-1.106,0.83-1.635,1.268c-4.391-4.854-9.208-9.353-14.419-13.459c0.366-0.601,0.725-1.209,1.05-1.848
				c6.262-12.333,2.104-27.02-9.286-32.803c-11.391-5.783-25.7-0.473-31.962,11.86c-0.324,0.639-0.604,1.288-0.873,1.938
				c-6.39-1.784-12.864-3.018-19.374-3.698c0.04-0.686,0.072-1.373,0.058-2.069c-0.272-13.572-11.028-23.636-24.023-22.478
				c-12.995,1.158-23.309,13.1-23.037,26.672c0.014,0.71,0.074,1.403,0.144,2.092c-6.519,1.858-12.921,4.234-19.152,7.107
				c-0.296-0.605-0.603-1.207-0.955-1.792c-6.733-11.175-21.205-13.919-32.323-6.13c-11.119,7.79-14.673,23.164-7.94,34.339
				c0.345,0.572,0.723,1.108,1.107,1.636c-4.924,4.924-9.535,10.271-13.796,16.007c-0.551-0.346-1.11-0.684-1.7-0.983
				c-11.39-5.783-25.7-0.473-31.962,11.86c-6.262,12.333-2.105,27.02,9.286,32.803c0.59,0.3,1.193,0.551,1.797,0.792
				c-2.116,6.824-3.712,13.702-4.782,20.583c-0.653,0.002-1.308,0.013-1.973,0.072c-12.995,1.159-23.31,13.1-23.037,26.674
				c0.272,13.573,11.028,23.636,24.023,22.478c0.679-0.061,1.346-0.167,2.009-0.286c1.357,6.726,3.218,13.297,5.564,19.656
				c-0.598,0.35-1.193,0.711-1.773,1.118c-11.118,7.789-14.673,23.163-7.939,34.338c6.733,11.175,21.205,13.92,32.323,6.131
				c0.57-0.4,1.106-0.83,1.635-1.268c4.392,4.854,9.208,9.353,14.419,13.459c-0.366,0.601-0.725,1.209-1.049,1.848
				c-6.262,12.333-2.105,27.02,9.286,32.803c11.39,5.783,25.7,0.473,31.962-11.861c0.324-0.639,0.604-1.287,0.873-1.938
				c6.39,1.784,12.864,3.018,19.375,3.698c-0.04,0.686-0.072,1.373-0.059,2.069c0.272,13.572,11.028,23.636,24.023,22.478
				c12.995-1.158,23.31-13.1,23.037-26.673c-0.014-0.709-0.073-1.403-0.144-2.092c6.519-1.858,12.921-4.234,19.152-7.107
				c0.296,0.605,0.604,1.207,0.956,1.791c6.733,11.175,21.205,13.92,32.323,6.131c11.118-7.79,14.673-23.163,7.94-34.339
				c-0.345-0.572-0.723-1.107-1.107-1.636c4.923-4.924,9.534-10.271,13.795-16.006
				C2179.232,824.721,2179.791,825.059,2180.381,825.358z M2038.389,827.16c-41.356-20.997-56.451-74.32-33.715-119.1
				c22.736-44.78,74.692-64.06,116.048-43.062c41.356,20.997,56.451,74.32,33.715,119.1
				C2131.701,828.878,2079.745,848.157,2038.389,827.16z"/>
		</g>
	</g>
</g>
</svg>
