<?xml version="1.0" encoding="utf-8"?>
<!-- Generator: Adobe Illustrator 27.5.0, SVG Export Plug-In . SVG Version: 6.00 Build 0)  -->
<svg version="1.1" xmlns="http://www.w3.org/2000/svg" xmlns:xlink="http://www.w3.org/1999/xlink" x="0px" y="0px"
	 viewBox="0 0 500 500" style="enable-background:new 0 0 500 500;" xml:space="preserve">
<g id="BACKGROUND">
	<g style="opacity:0.1;">
		<defs>
			<rect id="SVGID_1_" style="opacity:0.1;" width="500" height="500"/>
		</defs>
		<clipPath id="SVGID_00000068662765389214420430000005594198051588796038_">
			<use xlink:href="#SVGID_1_"  style="overflow:visible;"/>
		</clipPath>
		<g style="clip-path:url(#SVGID_00000068662765389214420430000005594198051588796038_);">
			<g>
				
					<rect x="-456.013" y="239.247" transform="matrix(0.505 -0.8631 0.8631 0.505 -272.9619 14.2335)" style="fill:#127C97;" width="663.883" height="11.683"/>
				
					<rect x="-416.637" y="239.765" transform="matrix(0.5049 -0.8632 0.8632 0.5049 -253.9265 48.4852)" style="fill:#127C97;" width="663.883" height="11.682"/>
				
					<rect x="-377.261" y="240.281" transform="matrix(0.505 -0.8631 0.8631 0.505 -234.8703 82.719)" style="fill:#127C97;" width="663.883" height="11.682"/>
				
					<rect x="-337.885" y="240.799" transform="matrix(0.5049 -0.8632 0.8632 0.5049 -215.834 116.9776)" style="fill:#127C97;" width="663.883" height="11.682"/>
				
					<rect x="-298.508" y="241.316" transform="matrix(0.505 -0.8631 0.8631 0.505 -196.7814 151.2119)" style="fill:#127C97;" width="663.883" height="11.682"/>
				
					<rect x="-259.132" y="241.833" transform="matrix(0.5049 -0.8632 0.8632 0.5049 -177.74 185.4775)" style="fill:#127C97;" width="663.883" height="11.682"/>
				
					<rect x="-219.755" y="242.349" transform="matrix(0.505 -0.8631 0.8631 0.505 -158.6866 219.6906)" style="fill:#127C97;" width="663.882" height="11.683"/>
				
					<rect x="-180.379" y="242.867" transform="matrix(0.5049 -0.8632 0.8632 0.5049 -139.6407 253.9464)" style="fill:#127C97;" width="663.882" height="11.681"/>
				
					<rect x="-141.003" y="243.383" transform="matrix(0.505 -0.8631 0.8631 0.505 -120.5961 288.1694)" style="fill:#127C97;" width="663.882" height="11.682"/>
				
					<rect x="-101.627" y="243.901" transform="matrix(0.5049 -0.8632 0.8632 0.5049 -101.5447 322.4409)" style="fill:#127C97;" width="663.882" height="11.682"/>
				
					<rect x="-62.251" y="244.418" transform="matrix(0.505 -0.8631 0.8631 0.505 -82.5038 356.6611)" style="fill:#127C97;" width="663.881" height="11.682"/>
				
					<rect x="-22.874" y="244.935" transform="matrix(0.505 -0.8631 0.8631 0.505 -63.4612 390.8963)" style="fill:#127C97;" width="663.882" height="11.682"/>
				
					<rect x="16.502" y="245.451" transform="matrix(0.505 -0.8631 0.8631 0.505 -44.416 425.1386)" style="fill:#127C97;" width="663.881" height="11.683"/>
				
					<rect x="55.879" y="245.969" transform="matrix(0.505 -0.8631 0.8631 0.505 -25.3667 459.3903)" style="fill:#127C97;" width="663.881" height="11.682"/>
				
					<rect x="95.255" y="246.485" transform="matrix(0.505 -0.8631 0.8631 0.505 -6.3154 493.6421)" style="fill:#127C97;" width="663.881" height="11.683"/>
				
					<rect x="134.63" y="247.004" transform="matrix(0.505 -0.8631 0.8631 0.505 12.7069 527.846)" style="fill:#127C97;" width="663.882" height="11.681"/>
				
					<rect x="174.006" y="247.52" transform="matrix(0.505 -0.8631 0.8631 0.505 31.777 562.1278)" style="fill:#127C97;" width="663.881" height="11.682"/>
				
					<rect x="213.382" y="248.037" transform="matrix(0.5049 -0.8632 0.8632 0.5049 50.8487 596.4079)" style="fill:#127C97;" width="663.881" height="11.684"/>
				
					<rect x="252.759" y="248.554" transform="matrix(0.5049 -0.8632 0.8632 0.5049 69.8933 630.6458)" style="fill:#127C97;" width="663.88" height="11.682"/>
				
					<rect x="292.135" y="249.07" transform="matrix(0.5049 -0.8632 0.8632 0.5049 88.9499 664.9008)" style="fill:#127C97;" width="663.88" height="11.684"/>
			</g>
		</g>
	</g>
</g>
<g id="OBJECTS">
	<g>
		<g>
			<g>
				<g style="opacity:0.15;">
					
						<ellipse transform="matrix(0.7071 -0.7071 0.7071 0.7071 -99.7222 254.2121)" cx="257" cy="247.481" rx="145.186" ry="145.186"/>
				</g>
				<g>
					
						<ellipse transform="matrix(0.7071 -0.7071 0.7071 0.7071 -96.8227 247.2121)" style="fill:#127C97;" cx="250" cy="240.481" rx="145.186" ry="145.186"/>
				</g>
			</g>
			
				<path style="opacity:0.1;fill:none;stroke:#FFFFFF;stroke-width:8;stroke-linecap:round;stroke-linejoin:round;stroke-miterlimit:10;" d="
				M373.106,291.31c-5.003,12.074-11.733,23.259-19.881,33.244"/>
			
				<path style="opacity:0.1;fill:none;stroke:#FFFFFF;stroke-width:8;stroke-linecap:round;stroke-linejoin:round;stroke-miterlimit:10;" d="
				M250,107.296c73.439,0,133.185,59.747,133.185,133.186c0,12.383-1.698,24.376-4.875,35.759"/>
		</g>
		<g>
			<g style="opacity:0.1;">
				<text transform="matrix(1 0 0 1 209.4243 158.5864)" style="font-family:'Aan55'; font-size:25.2159px;">Sign up!</text>
			</g>
			<g>
				<text transform="matrix(1 0 0 1 207.4243 156.5864)" style="fill:#FFFFFF; font-family:'Aan55'; font-size:25.2159px;">Sign up!</text>
			</g>
		</g>
		<g>
			<path style="opacity:0.3;fill:#FFFFFF;" d="M353.922,204.65c0,12.323-9.989,22.313-22.313,22.313H168.39
				c-12.323,0-22.312-9.99-22.312-22.313l0,0c0-12.323,9.989-22.313,22.312-22.313h163.22
				C343.933,182.338,353.922,192.328,353.922,204.65L353.922,204.65z"/>
			
				<text transform="matrix(1 0 0 1 202.2017 209.1914)" style="opacity:0.6;fill:#FFFFFF; font-family:'Aan55'; font-size:15.1482px;">username</text>
			<g>
				<g>
					<path style="fill:#FFFFFF;" d="M175.022,204.122c-1.097,1.503-2.724,2.46-4.541,2.46c-1.817,0-3.444-0.958-4.542-2.46
						c-2.266,1.529-3.773,4.149-3.773,7.146c0,0.406,0.029,0.805,0.083,1.196c2.212,1.9,5.087,3.051,8.232,3.051
						c3.145,0,6.021-1.151,8.232-3.051c0.053-0.391,0.082-0.79,0.082-1.196C178.794,208.27,177.287,205.65,175.022,204.122z"/>
					<path style="fill:#FFFFFF;" d="M170.481,205.372c2.633,0,4.767-2.594,4.767-5.792c0-3.2-2.134-5.794-4.767-5.794
						c-2.633,0-4.769,2.594-4.769,5.794C165.713,202.778,167.848,205.372,170.481,205.372z"/>
				</g>
				<path style="fill:none;stroke:#FFFFFF;stroke-width:2.3984;stroke-miterlimit:10;" d="M186.402,204.65
					c0,8.794-7.128,15.923-15.921,15.923c-8.794,0-15.923-7.129-15.923-15.923c0-8.794,7.128-15.923,15.923-15.923
					C179.274,188.727,186.402,195.856,186.402,204.65z"/>
			</g>
		</g>
		<g>
			<path style="opacity:0.3;fill:#FFFFFF;" d="M353.922,257.019c0,12.322-9.989,22.312-22.313,22.312H168.39
				c-12.323,0-22.312-9.989-22.312-22.312l0,0c0-12.323,9.989-22.314,22.312-22.314h163.22
				C343.933,234.705,353.922,244.695,353.922,257.019L353.922,257.019z"/>
			
				<text transform="matrix(1 0 0 1 202.2017 261.5576)" style="opacity:0.6;fill:#FFFFFF; font-family:'Aan55'; font-size:15.1482px;">password</text>
			<g>
				<path style="fill:#FFFFFF;" d="M182.465,254.947h-10.825c-0.869-2.644-3.354-4.554-6.289-4.554
					c-3.658,0-6.624,2.965-6.624,6.623s2.966,6.625,6.624,6.625c3.313,0,6.05-2.438,6.538-5.614h3.739v1.854
					c0,0.74,0.6,1.339,1.34,1.339c0.74,0,1.338-0.599,1.338-1.339v-1.854h0.941v3.745c0,0.739,0.598,1.338,1.34,1.338
					c0.739,0,1.337-0.599,1.337-1.338v-3.745h0.541c0.85,0,1.539-0.688,1.539-1.54C184.004,255.636,183.315,254.947,182.465,254.947
					z M164.735,258.845c0,1.063-0.862,1.926-1.925,1.926c-1.064,0-1.926-0.863-1.926-1.926v-3.656c0-1.064,0.862-1.926,1.926-1.926
					c1.063,0,1.925,0.862,1.925,1.926V258.845z"/>
				<path style="fill:none;stroke:#FFFFFF;stroke-width:2.3984;stroke-miterlimit:10;" d="M186.402,257.017
					c0,8.794-7.128,15.923-15.921,15.923c-8.794,0-15.923-7.129-15.923-15.923c0-8.794,7.128-15.922,15.923-15.922
					C179.274,241.094,186.402,248.223,186.402,257.017z"/>
			</g>
		</g>
		<g>
			<g>
				<g style="opacity:0.15;">
					<path d="M315.745,322.982c0,12.322-9.989,22.313-22.313,22.313h-80.866c-12.323,0-22.312-9.99-22.312-22.313l0,0
						c0-12.323,9.989-22.313,22.312-22.313h80.866C305.756,300.669,315.745,310.659,315.745,322.982L315.745,322.982z"/>
				</g>
				<g>
					<path style="fill:#B3D33D;" d="M312.745,319.982c0,12.322-9.989,22.313-22.313,22.313h-80.866
						c-12.323,0-22.312-9.99-22.312-22.313l0,0c0-12.323,9.989-22.313,22.312-22.313h80.866
						C302.756,297.669,312.745,307.659,312.745,319.982L312.745,319.982z"/>
				</g>
			</g>
			
				<path style="opacity:0.2;fill:none;stroke:#FFFFFF;stroke-width:4;stroke-linecap:round;stroke-linejoin:round;stroke-miterlimit:10;" d="
				M278.566,304.669h11.866c8.443,0,15.313,6.869,15.313,15.313c0,8.443-6.869,15.313-15.313,15.313h-18.66"/>
			<g>
				<text transform="matrix(1 0 0 1 227.6592 325.2354)" style="fill:#127C97; font-family:'Agan65'; font-size:17.3123px;">Log in</text>
			</g>
			
				<line style="opacity:0.2;fill:none;stroke:#FFFFFF;stroke-width:4;stroke-linecap:round;stroke-linejoin:round;stroke-miterlimit:10;" x1="262.772" y1="335.295" x2="243.354" y2="335.295"/>
		</g>
	</g>
</g>
<g id="DESIGNED_BY_FREEPIK">
	<g id="XMLID_76_">
		<g>
			<g id="XMLID_486_">
				<path id="XMLID_507_" style="fill:#127C97;" d="M181.087,466.631c-0.246,0-0.435,0.084-0.566,0.255
					c-0.134,0.169-0.199,0.421-0.199,0.753v2.393c-0.305-0.332-0.617-0.579-0.938-0.739c-0.321-0.159-0.715-0.24-1.182-0.24
					c-0.807,0-1.457,0.283-1.952,0.849c-0.494,0.565-0.742,1.355-0.742,2.369c0,0.478,0.063,0.923,0.188,1.335
					c0.124,0.412,0.307,0.77,0.549,1.074c0.241,0.304,0.526,0.539,0.857,0.703c0.33,0.164,0.689,0.246,1.078,0.246
					c0.293,0,0.563-0.04,0.809-0.122c0.248-0.081,0.477-0.199,0.689-0.356c0.212-0.155,0.427-0.359,0.644-0.607v0.16
					c0,0.297,0.072,0.525,0.217,0.686c0.145,0.16,0.327,0.24,0.549,0.24c0.226,0,0.409-0.077,0.553-0.231
					c0.143-0.154,0.213-0.386,0.213-0.694v-7.146c0-0.306-0.066-0.534-0.198-0.69C181.521,466.709,181.332,466.631,181.087,466.631z
					 M180.021,473.471c-0.141,0.307-0.328,0.534-0.564,0.682c-0.235,0.149-0.496,0.224-0.78,0.224c-0.281,0-0.54-0.078-0.778-0.236
					c-0.237-0.154-0.424-0.387-0.561-0.696c-0.136-0.309-0.204-0.682-0.204-1.121c0-0.416,0.063-0.78,0.192-1.096
					c0.128-0.314,0.31-0.556,0.543-0.724c0.233-0.168,0.499-0.253,0.796-0.253c0.284,0,0.547,0.083,0.786,0.246
					c0.239,0.165,0.429,0.402,0.569,0.713c0.142,0.31,0.211,0.682,0.211,1.113C180.232,472.78,180.163,473.164,180.021,473.471z"/>
				<path id="XMLID_504_" style="fill:#127C97;" d="M188.452,472.551c0.233-0.122,0.35-0.385,0.35-0.793
					c0-0.439-0.113-0.87-0.338-1.294c-0.226-0.423-0.564-0.769-1.019-1.035c-0.453-0.268-0.996-0.4-1.628-0.4
					c-0.487,0-0.931,0.078-1.33,0.234c-0.399,0.156-0.736,0.381-1.009,0.674c-0.273,0.293-0.48,0.644-0.623,1.054
					c-0.144,0.408-0.214,0.853-0.214,1.332c0,1.017,0.289,1.822,0.866,2.415c0.577,0.593,1.387,0.891,2.428,0.891
					c0.455,0,0.857-0.06,1.207-0.179c0.352-0.119,0.641-0.268,0.873-0.447c0.232-0.181,0.404-0.368,0.52-0.565
					c0.114-0.196,0.172-0.366,0.172-0.514c0-0.166-0.052-0.294-0.155-0.386c-0.103-0.09-0.236-0.137-0.402-0.137
					c-0.154,0-0.273,0.036-0.356,0.107c-0.202,0.189-0.366,0.34-0.492,0.451c-0.127,0.111-0.266,0.216-0.416,0.312
					c-0.15,0.098-0.305,0.168-0.466,0.215c-0.16,0.044-0.337,0.066-0.531,0.066c-0.288,0-0.553-0.069-0.792-0.213
					c-0.239-0.142-0.432-0.354-0.576-0.635c-0.145-0.281-0.219-0.605-0.222-0.974h3.168
					C187.89,472.731,188.219,472.671,188.452,472.551z M184.298,471.813c0.056-0.547,0.212-0.96,0.472-1.238
					c0.259-0.28,0.59-0.418,0.994-0.418c0.423,0,0.764,0.137,1.023,0.411c0.259,0.275,0.409,0.689,0.448,1.245H184.298z"/>
				<path id="XMLID_503_" style="fill:#127C97;" d="M193.879,472.114c-0.319-0.17-0.729-0.316-1.231-0.439
					c-0.424-0.104-0.756-0.19-0.997-0.262c-0.242-0.069-0.434-0.16-0.576-0.27c-0.143-0.108-0.213-0.247-0.213-0.418
					c0-0.186,0.097-0.342,0.29-0.466c0.194-0.125,0.438-0.187,0.73-0.187c0.285,0,0.511,0.047,0.677,0.142
					c0.166,0.096,0.311,0.223,0.433,0.38c0.151,0.19,0.284,0.332,0.401,0.427c0.116,0.096,0.258,0.143,0.424,0.143
					c0.23,0,0.407-0.061,0.531-0.178c0.124-0.119,0.186-0.272,0.186-0.457c0-0.171-0.058-0.345-0.175-0.523
					c-0.116-0.178-0.286-0.34-0.511-0.485c-0.223-0.147-0.502-0.265-0.837-0.351c-0.333-0.088-0.71-0.131-1.13-0.131
					c-0.535,0-0.99,0.085-1.367,0.259c-0.378,0.172-0.665,0.402-0.858,0.69c-0.194,0.289-0.291,0.597-0.291,0.92
					c0,0.364,0.105,0.671,0.315,0.921c0.21,0.249,0.489,0.45,0.84,0.602c0.351,0.152,0.805,0.298,1.362,0.436
					c0.494,0.119,0.849,0.244,1.066,0.375c0.216,0.131,0.323,0.338,0.323,0.622c0,0.187-0.103,0.352-0.311,0.497
					c-0.207,0.144-0.474,0.216-0.798,0.216c-0.4,0-0.715-0.071-0.947-0.213c-0.232-0.144-0.431-0.357-0.597-0.647
					c-0.082-0.149-0.17-0.267-0.262-0.351c-0.091-0.082-0.221-0.124-0.39-0.124c-0.194,0-0.355,0.064-0.481,0.19
					c-0.127,0.126-0.19,0.277-0.19,0.456c0,0.27,0.099,0.537,0.297,0.805c0.197,0.267,0.505,0.489,0.92,0.667
					c0.415,0.179,0.914,0.267,1.495,0.267c0.609,0,1.127-0.082,1.553-0.246c0.425-0.164,0.747-0.405,0.964-0.725
					c0.219-0.318,0.327-0.701,0.327-1.148c0-0.297-0.082-0.561-0.246-0.792C194.438,472.485,194.197,472.283,193.879,472.114z"/>
				<path id="XMLID_502_" style="fill:#127C97;" d="M196.486,469.04c-0.237,0-0.431,0.081-0.578,0.243
					c-0.149,0.162-0.223,0.404-0.223,0.724v4.636c0,0.316,0.073,0.559,0.223,0.73c0.148,0.17,0.341,0.255,0.578,0.255
					c0.238,0,0.434-0.083,0.588-0.249c0.154-0.166,0.232-0.412,0.232-0.736v-4.683c0-0.289-0.077-0.515-0.232-0.677
					C196.92,469.121,196.725,469.04,196.486,469.04z"/>
				<path id="XMLID_501_" style="fill:#127C97;" d="M196.505,466.701c-0.218,0-0.409,0.073-0.573,0.223
					c-0.164,0.149-0.246,0.337-0.246,0.567c0,0.254,0.08,0.449,0.24,0.587c0.16,0.139,0.354,0.209,0.579,0.209
					c0.217,0,0.405-0.071,0.563-0.212c0.157-0.14,0.237-0.335,0.237-0.584c0-0.258-0.081-0.453-0.243-0.588
					C196.9,466.769,196.715,466.701,196.505,466.701z"/>
				<path id="XMLID_498_" style="fill:#127C97;" d="M203.626,469.04c-0.217,0-0.396,0.077-0.534,0.232
					c-0.139,0.154-0.208,0.372-0.208,0.652v0.221c-0.288-0.376-0.602-0.652-0.938-0.829c-0.336-0.175-0.734-0.264-1.193-0.264
					c-0.384,0-0.735,0.068-1.056,0.204c-0.321,0.137-0.604,0.34-0.85,0.608c-0.244,0.269-0.433,0.6-0.566,0.992
					c-0.133,0.391-0.198,0.83-0.198,1.317c0,0.653,0.108,1.228,0.326,1.727c0.217,0.499,0.529,0.887,0.935,1.163
					c0.406,0.277,0.88,0.416,1.422,0.416c0.45,0,0.84-0.091,1.165-0.272c0.327-0.182,0.615-0.447,0.864-0.797
					c-0.008,0.531-0.02,0.916-0.035,1.155c-0.016,0.24-0.07,0.465-0.164,0.673c-0.093,0.21-0.255,0.374-0.486,0.49
					c-0.23,0.117-0.557,0.175-0.977,0.175c-0.205,0-0.388-0.018-0.546-0.056c-0.158-0.038-0.294-0.095-0.406-0.172
					c-0.112-0.078-0.216-0.17-0.309-0.279c-0.094-0.108-0.184-0.217-0.27-0.324c-0.179-0.209-0.387-0.314-0.624-0.314
					c-0.189,0-0.352,0.062-0.486,0.187c-0.135,0.124-0.202,0.285-0.202,0.483c0,0.262,0.119,0.516,0.357,0.763
					c0.238,0.248,0.576,0.449,1.015,0.605c0.439,0.156,0.938,0.234,1.496,0.234c0.609,0,1.119-0.061,1.528-0.184
					c0.409-0.122,0.74-0.312,0.994-0.563c0.253-0.254,0.438-0.574,0.551-0.961c0.115-0.39,0.173-0.852,0.173-1.39v-4.706
					c0-0.384-0.051-0.679-0.155-0.882C204.146,469.143,203.938,469.04,203.626,469.04z M202.6,473.405
					c-0.151,0.29-0.346,0.508-0.586,0.653c-0.239,0.143-0.493,0.217-0.762,0.217c-0.455,0-0.826-0.168-1.112-0.505
					c-0.287-0.337-0.431-0.834-0.431-1.49c0-0.648,0.139-1.149,0.418-1.501s0.649-0.529,1.113-0.529
					c0.475,0,0.858,0.185,1.149,0.554c0.291,0.367,0.436,0.882,0.436,1.542C202.825,472.762,202.749,473.114,202.6,473.405z"/>
				<path id="XMLID_497_" style="fill:#127C97;" d="M210.979,470.107c-0.165-0.339-0.418-0.602-0.753-0.788
					c-0.337-0.186-0.719-0.279-1.146-0.279c-0.44,0-0.827,0.088-1.165,0.264c-0.339,0.177-0.651,0.452-0.936,0.828v-0.195
					c0-0.194-0.034-0.358-0.104-0.493c-0.069-0.134-0.162-0.234-0.275-0.303c-0.115-0.067-0.244-0.101-0.388-0.101
					c-0.232,0-0.416,0.076-0.552,0.228c-0.134,0.153-0.201,0.384-0.201,0.692v4.683c0,0.316,0.076,0.559,0.226,0.73
					c0.15,0.17,0.342,0.255,0.576,0.255c0.241,0,0.438-0.082,0.591-0.246c0.151-0.164,0.228-0.411,0.228-0.739v-2.03
					c0-0.66,0.04-1.111,0.119-1.353c0.11-0.3,0.284-0.537,0.522-0.71c0.237-0.173,0.5-0.258,0.788-0.258
					c0.444,0,0.74,0.142,0.889,0.425c0.148,0.282,0.223,0.691,0.223,1.226v2.7c0,0.316,0.074,0.559,0.226,0.73
					c0.15,0.17,0.346,0.255,0.587,0.255c0.238,0,0.431-0.083,0.579-0.249c0.149-0.166,0.223-0.412,0.223-0.736v-3.016
					c0-0.357-0.017-0.648-0.048-0.878C211.155,470.521,211.086,470.306,210.979,470.107z"/>
				<path id="XMLID_494_" style="fill:#127C97;" d="M217.821,472.551c0.233-0.122,0.351-0.385,0.351-0.793
					c0-0.439-0.113-0.87-0.338-1.294c-0.227-0.423-0.565-0.769-1.02-1.035c-0.453-0.268-0.995-0.4-1.628-0.4
					c-0.487,0-0.93,0.078-1.33,0.234c-0.399,0.156-0.735,0.381-1.009,0.674c-0.274,0.293-0.481,0.644-0.623,1.054
					c-0.143,0.408-0.214,0.853-0.214,1.332c0,1.017,0.289,1.822,0.866,2.415c0.578,0.593,1.388,0.891,2.428,0.891
					c0.455,0,0.858-0.06,1.208-0.179c0.351-0.119,0.641-0.268,0.872-0.447c0.231-0.181,0.405-0.368,0.52-0.565
					c0.115-0.196,0.172-0.366,0.172-0.514c0-0.166-0.051-0.294-0.153-0.386c-0.104-0.09-0.238-0.137-0.404-0.137
					c-0.154,0-0.273,0.036-0.357,0.107c-0.201,0.189-0.366,0.34-0.491,0.451c-0.128,0.111-0.267,0.216-0.416,0.312
					c-0.15,0.098-0.307,0.168-0.466,0.215c-0.161,0.044-0.338,0.066-0.532,0.066c-0.288,0-0.553-0.069-0.792-0.213
					c-0.239-0.142-0.431-0.354-0.575-0.635c-0.144-0.281-0.219-0.605-0.223-0.974h3.169
					C217.26,472.731,217.588,472.671,217.821,472.551z M213.667,471.813c0.056-0.547,0.212-0.96,0.471-1.238
					c0.26-0.28,0.591-0.418,0.995-0.418c0.424,0,0.765,0.137,1.023,0.411c0.259,0.275,0.409,0.689,0.448,1.245H213.667z"/>
				<path id="XMLID_491_" style="fill:#127C97;" d="M224.207,466.631c-0.245,0-0.435,0.084-0.567,0.255
					c-0.132,0.169-0.199,0.421-0.199,0.753v2.393c-0.304-0.332-0.616-0.579-0.938-0.739c-0.319-0.159-0.714-0.24-1.181-0.24
					c-0.808,0-1.458,0.283-1.953,0.849c-0.494,0.565-0.741,1.355-0.741,2.369c0,0.478,0.063,0.923,0.187,1.335
					c0.125,0.412,0.308,0.77,0.55,1.074c0.241,0.304,0.527,0.539,0.857,0.703c0.33,0.164,0.689,0.246,1.077,0.246
					c0.293,0,0.563-0.04,0.811-0.122c0.247-0.081,0.476-0.199,0.688-0.356c0.212-0.155,0.426-0.359,0.644-0.607v0.16
					c0,0.297,0.072,0.525,0.217,0.686c0.145,0.16,0.328,0.24,0.55,0.24c0.226,0,0.409-0.077,0.552-0.231
					c0.143-0.154,0.213-0.386,0.213-0.694v-7.146c0-0.306-0.065-0.534-0.198-0.69C224.641,466.709,224.452,466.631,224.207,466.631z
					 M223.142,473.471c-0.141,0.307-0.328,0.534-0.565,0.682c-0.235,0.149-0.495,0.224-0.78,0.224c-0.281,0-0.54-0.078-0.776-0.236
					c-0.238-0.154-0.426-0.387-0.561-0.696c-0.137-0.309-0.205-0.682-0.205-1.121c0-0.416,0.064-0.78,0.192-1.096
					c0.129-0.314,0.311-0.556,0.543-0.724c0.233-0.168,0.5-0.253,0.796-0.253c0.285,0,0.547,0.083,0.786,0.246
					c0.239,0.165,0.43,0.402,0.57,0.713c0.141,0.31,0.21,0.682,0.21,1.113C223.352,472.78,223.282,473.164,223.142,473.471z"/>
				<path id="XMLID_488_" style="fill:#127C97;" d="M233.586,469.434c-0.406-0.254-0.877-0.382-1.415-0.382
					c-0.467,0-0.859,0.084-1.176,0.252c-0.316,0.168-0.627,0.411-0.932,0.728v-2.476c0-0.297-0.068-0.524-0.202-0.686
					c-0.135-0.159-0.326-0.239-0.575-0.239c-0.237,0-0.423,0.084-0.556,0.252c-0.133,0.168-0.198,0.416-0.198,0.744v7.075
					c0,0.305,0.068,0.535,0.205,0.692c0.136,0.156,0.319,0.233,0.549,0.233c0.226,0,0.412-0.077,0.558-0.233
					c0.146-0.157,0.22-0.388,0.22-0.692v-0.16c0.178,0.204,0.321,0.36,0.43,0.463c0.109,0.102,0.241,0.203,0.395,0.3
					c0.154,0.098,0.341,0.175,0.561,0.234c0.22,0.06,0.454,0.089,0.703,0.089c0.407,0,0.781-0.082,1.119-0.246
					c0.338-0.164,0.626-0.397,0.864-0.698c0.236-0.3,0.418-0.656,0.543-1.064c0.124-0.41,0.186-0.859,0.186-1.35
					c0-0.666-0.112-1.241-0.336-1.725C234.306,470.06,233.991,469.69,233.586,469.434z M232.797,473.845
					c-0.295,0.354-0.646,0.531-1.054,0.531c-0.479,0-0.866-0.174-1.16-0.521c-0.295-0.346-0.442-0.841-0.442-1.486
					c0-0.439,0.069-0.818,0.208-1.137c0.139-0.318,0.328-0.561,0.569-0.729c0.24-0.168,0.517-0.253,0.825-0.253
					c0.301,0,0.564,0.085,0.79,0.253c0.225,0.168,0.398,0.406,0.521,0.715c0.123,0.309,0.184,0.677,0.184,1.104
					C233.238,472.983,233.091,473.49,232.797,473.845z"/>
				<path id="XMLID_487_" style="fill:#127C97;" d="M240.529,469.138c-0.112-0.065-0.23-0.098-0.353-0.098
					c-0.171,0-0.303,0.029-0.395,0.089c-0.093,0.059-0.181,0.174-0.264,0.344c-0.083,0.171-0.176,0.406-0.278,0.706l-1.3,3.71
					l-1.372-3.988c-0.091-0.277-0.195-0.489-0.314-0.638c-0.119-0.148-0.296-0.223-0.528-0.223c-0.136,0-0.265,0.035-0.39,0.107
					c-0.124,0.07-0.222,0.166-0.294,0.284c-0.07,0.118-0.107,0.247-0.107,0.386c0,0.13,0.062,0.341,0.185,0.628l1.994,5.021
					l-0.148,0.363c-0.111,0.265-0.209,0.465-0.294,0.601c-0.086,0.138-0.181,0.234-0.288,0.289
					c-0.106,0.056-0.254,0.083-0.439,0.083c-0.074,0-0.164-0.012-0.267-0.035c-0.083-0.024-0.168-0.036-0.256-0.036
					c-0.221,0-0.389,0.051-0.501,0.151c-0.113,0.101-0.169,0.245-0.169,0.431c0,0.272,0.118,0.461,0.356,0.564
					c0.236,0.103,0.593,0.153,1.067,0.153c0.487,0,0.873-0.073,1.161-0.223c0.286-0.147,0.517-0.361,0.69-0.638
					c0.175-0.277,0.353-0.659,0.535-1.146l2.112-5.531c0.052-0.143,0.095-0.283,0.131-0.421c0.036-0.14,0.061-0.246,0.078-0.321
					c0-0.123-0.032-0.239-0.093-0.35C240.729,469.291,240.643,469.203,240.529,469.138z"/>
			</g>
			<g id="XMLID_450_">
				<g id="XMLID_465_">
					<path id="XMLID_485_" style="fill:#127C97;" d="M262.93,466.626c-0.533,0-0.954,0.068-1.26,0.204
						c-0.308,0.137-0.527,0.353-0.654,0.652c-0.13,0.301-0.191,0.702-0.191,1.211v0.486h-0.387c-0.543,0-0.815,0.192-0.815,0.582
						c0,0.175,0.066,0.316,0.196,0.424c0.132,0.111,0.315,0.164,0.559,0.164h0.446v4.293c0,0.319,0.074,0.563,0.228,0.73
						c0.154,0.17,0.344,0.254,0.573,0.254c0.243,0,0.439-0.084,0.589-0.254c0.155-0.168,0.23-0.411,0.23-0.73v-4.293h0.395
						c0.291,0,0.517-0.036,0.681-0.107c0.166-0.071,0.245-0.24,0.245-0.503c0-0.374-0.307-0.56-0.926-0.56h-0.395v-0.386
						c0-0.321,0.043-0.567,0.122-0.739c0.087-0.172,0.273-0.26,0.565-0.26c0.107,0,0.241,0.014,0.39,0.034
						c0.155,0.026,0.268,0.038,0.33,0.038c0.134,0,0.252-0.055,0.348-0.16c0.101-0.107,0.15-0.235,0.15-0.385
						C264.35,466.855,263.879,466.626,262.93,466.626z"/>
					<path id="XMLID_484_" style="fill:#127C97;" d="M268.089,469.292c-0.32-0.171-0.647-0.256-0.99-0.256
						c-0.342,0-0.61,0.085-0.818,0.256c-0.202,0.171-0.4,0.421-0.593,0.755c-0.014-0.334-0.08-0.584-0.198-0.755
						c-0.119-0.171-0.313-0.256-0.583-0.256c-0.525,0-0.788,0.364-0.788,1.094v4.513c0,0.323,0.078,0.569,0.226,0.733
						c0.149,0.169,0.34,0.251,0.579,0.251c0.236,0,0.432-0.081,0.586-0.247c0.15-0.163,0.233-0.41,0.233-0.737v-1.355
						c0-0.486,0.014-0.899,0.045-1.238c0.033-0.337,0.089-0.631,0.17-0.878c0.084-0.243,0.201-0.426,0.353-0.554
						c0.149-0.122,0.345-0.186,0.582-0.186c0.172,0,0.374,0.036,0.602,0.107c0.227,0.073,0.371,0.112,0.433,0.112
						c0.158,0,0.305-0.063,0.441-0.194c0.135-0.126,0.204-0.292,0.204-0.488C268.571,469.69,268.411,469.463,268.089,469.292z"/>
					<path id="XMLID_481_" style="fill:#127C97;" d="M274.176,472.549c0.232-0.122,0.351-0.386,0.351-0.791
						c0-0.44-0.112-0.87-0.339-1.296c-0.222-0.423-0.565-0.77-1.018-1.033c-0.453-0.271-0.997-0.403-1.629-0.403
						c-0.488,0-0.931,0.078-1.329,0.232c-0.401,0.156-0.735,0.381-1.008,0.675c-0.276,0.295-0.484,0.644-0.624,1.055
						c-0.145,0.41-0.218,0.854-0.218,1.333c0,1.017,0.292,1.823,0.87,2.418c0.576,0.593,1.385,0.889,2.429,0.889
						c0.453,0,0.857-0.061,1.207-0.179c0.349-0.117,0.64-0.269,0.874-0.446c0.232-0.183,0.404-0.368,0.522-0.567
						c0.111-0.194,0.167-0.365,0.167-0.512c0-0.167-0.048-0.294-0.152-0.386c-0.104-0.093-0.237-0.139-0.405-0.139
						c-0.152,0-0.271,0.038-0.355,0.108c-0.202,0.189-0.367,0.34-0.493,0.449c-0.128,0.113-0.264,0.217-0.415,0.313
						c-0.15,0.097-0.308,0.17-0.466,0.213c-0.16,0.048-0.336,0.069-0.531,0.069c-0.29,0-0.552-0.07-0.792-0.212
						c-0.241-0.145-0.432-0.356-0.578-0.636c-0.145-0.28-0.216-0.606-0.222-0.974h3.171
						C273.615,472.73,273.942,472.67,274.176,472.549z M270.021,471.809c0.055-0.545,0.213-0.956,0.472-1.236
						c0.26-0.279,0.592-0.417,0.995-0.417c0.426,0,0.764,0.136,1.024,0.412c0.261,0.273,0.407,0.688,0.446,1.241H270.021z"/>
					<path id="XMLID_478_" style="fill:#127C97;" d="M280.916,472.549c0.232-0.122,0.352-0.386,0.352-0.791
						c0-0.44-0.116-0.87-0.341-1.296c-0.223-0.423-0.564-0.77-1.013-1.033c-0.46-0.271-1.003-0.403-1.634-0.403
						c-0.486,0-0.932,0.078-1.33,0.232c-0.4,0.156-0.736,0.381-1.009,0.675c-0.273,0.295-0.48,0.644-0.622,1.055
						c-0.145,0.41-0.217,0.854-0.217,1.333c0,1.017,0.29,1.823,0.867,2.418c0.58,0.593,1.387,0.889,2.43,0.889
						c0.453,0,0.859-0.061,1.208-0.179c0.347-0.117,0.641-0.269,0.872-0.446c0.234-0.183,0.408-0.368,0.518-0.567
						c0.116-0.194,0.171-0.365,0.171-0.512c0-0.167-0.047-0.294-0.15-0.386c-0.104-0.093-0.238-0.139-0.406-0.139
						c-0.151,0-0.271,0.038-0.355,0.108c-0.202,0.189-0.367,0.34-0.492,0.449c-0.128,0.113-0.264,0.217-0.415,0.313
						c-0.152,0.097-0.307,0.17-0.469,0.213c-0.157,0.048-0.335,0.069-0.527,0.069c-0.291,0-0.556-0.07-0.795-0.212
						c-0.238-0.145-0.431-0.356-0.575-0.636c-0.144-0.28-0.218-0.606-0.222-0.974h3.17
						C280.354,472.73,280.682,472.67,280.916,472.549z M276.762,471.809c0.053-0.545,0.211-0.956,0.47-1.236
						c0.26-0.279,0.592-0.417,0.995-0.417c0.425,0,0.764,0.136,1.026,0.412c0.257,0.273,0.407,0.688,0.446,1.241H276.762z"/>
					<path id="XMLID_475_" style="fill:#127C97;" d="M286.927,469.434c-0.42-0.256-0.883-0.386-1.38-0.386
						c-0.414,0-0.789,0.09-1.113,0.267c-0.331,0.177-0.648,0.453-0.952,0.828v-0.195c0-0.296-0.071-0.519-0.218-0.677
						c-0.144-0.156-0.329-0.234-0.561-0.234c-0.232,0-0.418,0.078-0.553,0.228c-0.133,0.154-0.2,0.382-0.2,0.691v6.995
						c0,0.354,0.052,0.619,0.146,0.807c0.102,0.183,0.301,0.274,0.606,0.274c0.518,0,0.778-0.359,0.778-1.068v-2.434
						c0.286,0.358,0.586,0.635,0.9,0.816c0.313,0.188,0.704,0.28,1.165,0.28c0.386,0,0.742-0.076,1.08-0.228
						c0.334-0.152,0.622-0.372,0.868-0.653c0.245-0.283,0.44-0.632,0.58-1.05c0.14-0.419,0.21-0.878,0.21-1.376
						c0-0.677-0.122-1.261-0.366-1.758C287.675,470.068,287.346,469.692,286.927,469.434z M286.45,473.438
						c-0.137,0.311-0.32,0.546-0.552,0.704c-0.23,0.153-0.48,0.232-0.748,0.232c-0.454,0-0.828-0.179-1.133-0.536
						c-0.307-0.358-0.459-0.863-0.459-1.504c0-0.687,0.154-1.204,0.461-1.559c0.307-0.35,0.685-0.526,1.131-0.526
						c0.281,0,0.54,0.083,0.77,0.247c0.229,0.163,0.411,0.397,0.542,0.705c0.13,0.306,0.196,0.674,0.196,1.101
						C286.658,472.745,286.588,473.123,286.45,473.438z"/>
					<path id="XMLID_474_" style="fill:#127C97;" d="M289.9,469.036c-0.238,0-0.428,0.08-0.58,0.245
						c-0.145,0.162-0.222,0.402-0.222,0.722v4.642c0,0.313,0.076,0.555,0.222,0.728c0.152,0.17,0.342,0.254,0.58,0.254
						c0.237,0,0.432-0.082,0.588-0.251c0.154-0.164,0.231-0.41,0.231-0.732v-4.688c0-0.286-0.077-0.513-0.231-0.675
						C290.332,469.116,290.138,469.036,289.9,469.036z"/>
					<path id="XMLID_473_" style="fill:#127C97;" d="M289.917,466.696c-0.217,0-0.407,0.076-0.571,0.223
						c-0.166,0.149-0.247,0.339-0.247,0.568c0,0.253,0.08,0.446,0.242,0.586c0.158,0.138,0.35,0.209,0.576,0.209
						c0.22,0,0.408-0.071,0.566-0.21c0.157-0.14,0.236-0.335,0.236-0.585c0-0.257-0.082-0.454-0.244-0.591
						C290.314,466.764,290.13,466.696,289.917,466.696z"/>
					<path id="XMLID_472_" style="fill:#127C97;" d="M297.258,474.066l-1.662-2.614l0.86-0.788c0.438-0.396,0.659-0.715,0.659-0.951
						c0-0.192-0.068-0.354-0.2-0.483c-0.138-0.128-0.306-0.193-0.509-0.193c-0.169,0-0.313,0.044-0.432,0.131
						c-0.121,0.086-0.29,0.251-0.517,0.486l-1.822,1.913v-3.933c0-0.329-0.074-0.582-0.221-0.751
						c-0.147-0.171-0.344-0.257-0.593-0.257c-0.256,0-0.457,0.093-0.596,0.283c-0.136,0.188-0.207,0.462-0.207,0.82v6.913
						c0,0.323,0.073,0.569,0.215,0.733c0.141,0.169,0.339,0.251,0.588,0.251c0.213,0,0.405-0.084,0.566-0.254
						c0.164-0.168,0.247-0.407,0.247-0.719v-1.29l0.88-0.83l1.428,2.352c0.182,0.278,0.329,0.472,0.436,0.58
						c0.106,0.109,0.261,0.16,0.458,0.16c0.227,0,0.413-0.073,0.554-0.222c0.142-0.151,0.214-0.351,0.214-0.609
						c0-0.089-0.029-0.189-0.082-0.288C297.47,474.406,297.379,474.262,297.258,474.066z"/>
					<path id="XMLID_471_" style="fill:#127C97;" d="M299.449,473.84c-0.25,0-0.458,0.087-0.629,0.261
						c-0.171,0.174-0.257,0.382-0.257,0.623c0,0.286,0.091,0.51,0.268,0.665c0.18,0.159,0.39,0.238,0.634,0.238
						c0.237,0,0.444-0.079,0.624-0.241c0.174-0.157,0.264-0.38,0.264-0.662c0-0.243-0.09-0.454-0.264-0.626
						C299.909,473.927,299.698,473.84,299.449,473.84z"/>
					<path id="XMLID_470_" style="fill:#127C97;" d="M306.835,472.913c-0.166,0-0.308,0.054-0.422,0.156
						c-0.113,0.104-0.219,0.245-0.318,0.427c-0.177,0.31-0.381,0.538-0.616,0.689c-0.23,0.15-0.509,0.225-0.834,0.225
						c-0.24,0-0.463-0.045-0.666-0.141c-0.201-0.094-0.372-0.229-0.516-0.409c-0.144-0.18-0.252-0.398-0.325-0.652
						c-0.075-0.256-0.114-0.537-0.114-0.842c0-0.647,0.146-1.161,0.439-1.533c0.293-0.375,0.682-0.561,1.158-0.561
						c0.333,0,0.606,0.074,0.82,0.226c0.219,0.148,0.424,0.375,0.623,0.674c0.108,0.158,0.209,0.27,0.299,0.339
						c0.09,0.068,0.201,0.104,0.338,0.104c0.202,0,0.377-0.068,0.524-0.203c0.143-0.135,0.214-0.3,0.214-0.491
						c0-0.192-0.062-0.397-0.192-0.617c-0.127-0.218-0.314-0.424-0.556-0.62c-0.245-0.192-0.54-0.353-0.891-0.475
						c-0.353-0.123-0.736-0.184-1.156-0.184c-0.674,0-1.26,0.139-1.747,0.418c-0.485,0.279-0.858,0.674-1.113,1.184
						c-0.259,0.511-0.387,1.098-0.387,1.765c0,0.981,0.281,1.765,0.841,2.35c0.563,0.582,1.345,0.876,2.349,0.876
						c0.469,0,0.894-0.065,1.269-0.192c0.377-0.125,0.688-0.294,0.935-0.502c0.248-0.207,0.434-0.425,0.553-0.656
						c0.122-0.229,0.183-0.445,0.183-0.646c0-0.169-0.067-0.331-0.199-0.482C307.198,472.99,307.033,472.913,306.835,472.913z"/>
					<path id="XMLID_467_" style="fill:#127C97;" d="M313.646,469.949c-0.288-0.29-0.628-0.518-1.026-0.674
						c-0.4-0.161-0.847-0.239-1.336-0.239c-0.482,0-0.924,0.078-1.326,0.234c-0.398,0.158-0.737,0.38-1.02,0.669
						c-0.281,0.288-0.498,0.637-0.649,1.045c-0.146,0.408-0.224,0.857-0.224,1.349c0,0.485,0.076,0.93,0.22,1.332
						c0.151,0.401,0.368,0.75,0.656,1.048c0.285,0.292,0.627,0.521,1.017,0.676c0.393,0.159,0.835,0.239,1.326,0.239
						c0.492,0,0.937-0.08,1.336-0.234c0.394-0.157,0.735-0.382,1.02-0.675c0.286-0.291,0.501-0.642,0.656-1.05
						c0.146-0.408,0.222-0.854,0.222-1.336c0-0.488-0.075-0.932-0.221-1.339C314.148,470.593,313.934,470.246,313.646,469.949z
						 M312.455,473.865c-0.29,0.372-0.682,0.558-1.171,0.558c-0.324,0-0.604-0.086-0.846-0.253c-0.24-0.168-0.424-0.409-0.554-0.728
						c-0.13-0.316-0.193-0.685-0.193-1.108c0-0.429,0.066-0.803,0.197-1.124c0.131-0.321,0.314-0.564,0.556-0.728
						c0.242-0.163,0.521-0.246,0.84-0.246c0.489,0,0.881,0.183,1.171,0.555c0.289,0.368,0.436,0.882,0.436,1.543
						C312.891,472.983,312.744,473.496,312.455,473.865z"/>
					<path id="XMLID_466_" style="fill:#127C97;" d="M323.569,469.31c-0.32-0.172-0.705-0.262-1.146-0.262
						c-0.381,0-0.726,0.081-1.038,0.241c-0.314,0.161-0.607,0.408-0.882,0.738c-0.191-0.326-0.431-0.572-0.725-0.735
						c-0.292-0.162-0.642-0.244-1.048-0.244c-0.395,0-0.748,0.079-1.07,0.241c-0.319,0.156-0.62,0.403-0.903,0.738v-0.153
						c0-0.262-0.073-0.467-0.222-0.616c-0.15-0.145-0.334-0.222-0.557-0.222c-0.226,0-0.412,0.078-0.556,0.239
						c-0.14,0.156-0.21,0.389-0.21,0.694v4.636c0,0.336,0.078,0.592,0.235,0.765c0.156,0.171,0.358,0.258,0.605,0.258
						c0.248,0,0.447-0.087,0.603-0.258c0.149-0.173,0.227-0.429,0.227-0.765v-2.189c0-0.683,0.086-1.206,0.253-1.566
						c0.169-0.369,0.517-0.55,1.048-0.55c0.264,0,0.459,0.071,0.582,0.22c0.121,0.142,0.197,0.33,0.226,0.552
						c0.027,0.226,0.04,0.544,0.04,0.952v2.581c0,0.342,0.078,0.594,0.232,0.767c0.148,0.17,0.35,0.255,0.595,0.255
						c0.254,0,0.454-0.085,0.61-0.255c0.156-0.174,0.23-0.426,0.23-0.767v-2.153c0-0.694,0.063-1.178,0.178-1.452
						c0.109-0.21,0.259-0.384,0.45-0.508c0.192-0.125,0.395-0.191,0.609-0.191c0.264,0,0.463,0.071,0.596,0.215
						c0.128,0.142,0.209,0.318,0.238,0.528c0.029,0.21,0.044,0.486,0.044,0.836v2.726c0,0.336,0.078,0.592,0.234,0.765
						c0.157,0.171,0.356,0.258,0.604,0.258c0.252,0,0.458-0.085,0.611-0.255c0.154-0.174,0.229-0.426,0.229-0.767v-3.163
						c0-0.629-0.068-1.091-0.206-1.386C324.128,469.734,323.889,469.484,323.569,469.31z"/>
				</g>
				<g id="XMLID_451_">
					<path id="XMLID_464_" style="fill:#127C97;" d="M245.273,471.94c-0.001-0.003-0.001-0.006-0.001-0.011
						C245.272,471.935,245.272,471.938,245.273,471.94z"/>
					<path id="XMLID_463_" style="fill:#127C97;" d="M245.355,472.458C245.356,472.458,245.356,472.458,245.355,472.458
						c-0.029-0.147-0.054-0.294-0.072-0.438C245.302,472.166,245.326,472.314,245.355,472.458z"/>
					<path id="XMLID_462_" style="fill:#127C97;" d="M245.892,473.963c-0.004-0.007-0.007-0.014-0.011-0.021
						C245.885,473.949,245.888,473.956,245.892,473.963z"/>
					<path id="XMLID_461_" style="fill:#127C97;" d="M245.84,473.862c-0.014-0.027-0.027-0.056-0.04-0.084
						C245.813,473.808,245.826,473.835,245.84,473.862z"/>
					<path id="XMLID_460_" style="fill:#127C97;" d="M245.506,473.038c0.079,0.25,0.175,0.492,0.285,0.724
						c-0.112-0.236-0.206-0.479-0.283-0.724H245.506z"/>
					<path id="XMLID_459_" style="fill:#127C97;" d="M250.736,465.178l-0.076-0.259c0.299-0.063,0.523-0.329,0.523-0.646
						c0-0.363-0.296-0.659-0.66-0.659c-0.364,0-0.66,0.296-0.66,0.659c0,0.317,0.225,0.583,0.522,0.646l0.084,0.289
						c-1.021,0.141-1.834,0.539-1.834,0.539l0.145,0.44c0.617-0.206,1.153-0.331,1.639-0.383c0.477-0.051,0.834-0.073,1.126-0.073
						c0.314,0,0.545,0.025,0.81,0.069l0.075-0.477C252.43,465.324,251.697,465.1,250.736,465.178z"/>
					<path id="XMLID_458_" style="fill:#127C97;" d="M245.453,467.685c-0.017,0.024-0.496,0.466-0.875,1.28
						c-0.017-0.025-0.035-0.051-0.057-0.074c-0.113-0.124-0.273-0.188-0.474-0.185c-0.002,0-0.006,0-0.01,0
						c-0.124,0-0.21-0.041-0.266-0.092c0.056-0.07,0.089-0.16,0.089-0.258c0-0.23-0.188-0.419-0.419-0.419
						c-0.23,0-0.417,0.189-0.417,0.419c0,0.231,0.188,0.417,0.417,0.417c0.037,0,0.071-0.005,0.105-0.012
						c0.102,0.113,0.266,0.213,0.504,0.208c0.123-0.001,0.214,0.031,0.273,0.098c0.069,0.075,0.093,0.185,0.1,0.267
						c0,0.002,0,0.004-0.002,0.004c-0.271,0.743-0.194,1.668-0.194,1.668l0.661,0.025c0.014-0.336,0.062-0.926,0.233-1.393
						c0.328-0.906,0.741-1.473,0.758-1.496l0.003-0.005c0.024-0.031,0.047-0.061,0.071-0.089l-0.196-0.142L245.453,467.685z"/>
					<path id="XMLID_457_" style="fill:#127C97;" d="M257.294,466.284c-0.23,0-0.419,0.186-0.419,0.417
						c0,0.037,0.006,0.071,0.015,0.103c-0.114,0.105-0.214,0.268-0.21,0.507c0.002,0.123-0.03,0.212-0.097,0.273
						c-0.053,0.047-0.119,0.072-0.185,0.088c-0.492-0.689-1.098-1.109-1.098-1.109l-0.474,0.509c0.358,0.326,0.725,0.733,1.08,1.243
						c0.246,0.352,0.499,0.807,0.71,1.259l0.64-0.304c0,0-0.292-0.722-0.703-1.369c0.071-0.025,0.143-0.064,0.206-0.12
						c0.125-0.113,0.188-0.272,0.184-0.474c-0.001-0.13,0.041-0.218,0.093-0.275c0.071,0.054,0.16,0.089,0.258,0.089
						c0.232,0,0.418-0.188,0.418-0.419C257.712,466.471,257.525,466.284,257.294,466.284z"/>
					<path id="XMLID_456_" style="fill:#127C97;" d="M255.633,472.034c-0.88,0.429-2.33,0.996-4.236,1.262
						c-0.749,0.104-1.475,0.143-2.143,0.143c-0.869,0-1.637-0.065-2.227-0.14c-0.672-0.085-1.197-0.188-1.52-0.261
						c0.077,0.244,0.171,0.487,0.283,0.724c0.002,0.006,0.005,0.013,0.009,0.017c0.013,0.028,0.026,0.057,0.04,0.084
						c0.014,0.027,0.027,0.055,0.041,0.079c0.004,0.008,0.007,0.015,0.011,0.021c0.19,0.356,0.417,0.684,0.676,0.968
						c0.899,0.984,1.815,1.139,1.824,1.141l0.015,0.002l0.014,0.005c0.009,0.003,0.821,0.265,2.057,0.265
						c1.215,0,2.408-0.244,3.545-0.729c0.842-0.431,1.639-1.085,2.033-1.668c0.305-0.452,0.526-0.934,0.656-1.434
						c0.069-0.267,0.124-0.692,0.092-1.141C256.555,471.539,256.163,471.776,255.633,472.034z"/>
					<path id="XMLID_452_" style="fill:#127C97;" d="M252.322,466.152c-0.265-0.044-0.477-0.068-0.777-0.068
						c-0.279,0-0.626,0.022-1.088,0.07c-0.465,0.049-0.982,0.171-1.583,0.373c-0.843,0.282-1.604,0.725-2.204,1.279l-0.02,0.02
						c-0.09,0.081-0.274,0.254-0.488,0.525c-0.025,0.037-0.408,0.578-0.709,1.407c-0.227,0.622-0.217,1.527-0.217,1.537v0.002
						c0,0.212,0.013,0.423,0.036,0.632c0,0.005,0,0.008,0.001,0.011c0.002,0.027,0.007,0.053,0.01,0.08
						c0.019,0.144,0.043,0.291,0.074,0.438c0.438,0.112,3.048,0.721,5.966,0.314c1.828-0.255,3.218-0.795,4.061-1.204
						c0.701-0.34,1.151-0.647,1.325-0.773c-0.174-0.643-0.651-1.65-1.089-2.279C254.367,466.726,253.016,466.267,252.322,466.152z
						 M248.679,471.41c-0.971,0-1.759-0.786-1.759-1.759c0-0.972,0.788-1.76,1.759-1.76c0.973,0,1.761,0.788,1.761,1.76
						C250.439,470.624,249.651,471.41,248.679,471.41z M253.828,470.113c-0.601,0-1.088-0.488-1.088-1.09
						c0-0.602,0.487-1.089,1.088-1.089s1.09,0.487,1.09,1.089C254.918,469.625,254.429,470.113,253.828,470.113z"/>
				</g>
			</g>
		</g>
	</g>
</g>
</svg>
